<svg width="173" height="184" viewBox="0 0 173 184" fill="none" xmlns="http://www.w3.org/2000/svg">
<g clip-path="url(#clip0_415_5459)">
<path d="M146.079 19.0141C146.079 19.0141 146.263 12.3203 150.135 10.4231C154.008 8.5258 154.228 14.7927 154.228 14.7927C154.228 14.7927 163.084 9.18391 165.006 13.435C166.927 17.686 164.244 19.7434 164.244 19.7434C164.244 19.7434 172.108 19.4706 172.655 23.7691C173.202 28.0676 169.14 30.1724 169.14 30.1724C169.14 30.1724 173.999 34.127 172.292 35.9531C170.585 37.7792 166.85 37.9096 166.85 37.9096C166.85 37.9096 168.967 42.1488 165.273 43.6548C161.58 45.1607 157.356 42.3563 157.356 42.3563C157.356 42.3563 158.011 44.301 155.239 43.8089C152.467 43.3168 149.666 42.0303 147.947 37.9749C146.228 33.9195 144.009 22.4351 146.079 19.0141Z" fill="#121212" stroke="#121212" stroke-linecap="round" stroke-linejoin="round"/>
<path d="M105.192 148.295C105.192 148.295 102.985 156.69 103.021 157.621C103.056 158.552 102.289 160.662 102.937 161.261C104.151 162.248 105.437 163.142 106.786 163.935C107.335 163.928 107.872 163.765 108.332 163.467C108.481 163.334 108.601 163.171 108.684 162.989C108.767 162.808 108.811 162.611 108.814 162.411C108.814 162.097 107.928 160.781 107.809 160.473C107.69 160.164 109.433 156.151 110.093 154.152C110.587 152.368 110.941 150.549 111.152 148.71L105.192 148.295Z" fill="white" stroke="#121212" stroke-linecap="round" stroke-linejoin="round"/>
<path d="M107.589 154.141C107.589 154.141 106.334 157.105 106.25 157.615C106.167 158.125 104.466 159.548 104.692 160.686C104.918 161.825 107.428 161.522 108.665 158.155" fill="white"/>
<path d="M107.589 154.141C107.589 154.141 106.334 157.105 106.25 157.615C106.167 158.125 104.466 159.548 104.692 160.686C104.918 161.825 107.428 161.522 108.665 158.155" stroke="#121212" stroke-linecap="round" stroke-linejoin="round"/>
<path d="M113.21 102.689C113.21 102.689 112.157 119.812 111.758 121.324C111.36 122.836 106.578 136.644 105.525 140.89C104.879 143.518 104.42 146.189 104.151 148.882L110.569 150.228L114.173 134.445C114.173 134.445 118.884 120.061 117.927 113.32C117.436 109.392 115.795 105.694 113.21 102.689Z" fill="#E73A2E" stroke="#121212" stroke-miterlimit="10"/>
<path d="M146.644 183.578C146.721 179.854 146.876 174.833 147.239 171.957C147.834 166.989 149.963 163.917 152.152 157.728C154.341 151.538 154.531 143.403 154.531 143.403L115.333 144.767C115.333 144.767 110.789 161.564 108.035 173.92C107.287 177.089 106.851 180.324 106.732 183.578" fill="#E73A2E"/>
<path d="M146.644 183.578C146.721 179.854 146.876 174.833 147.239 171.957C147.834 166.989 149.963 163.917 152.152 157.728C154.341 151.538 154.531 143.403 154.531 143.403L115.333 144.767C115.333 144.767 110.789 161.564 108.035 173.92C107.287 177.089 106.851 180.324 106.732 183.578" stroke="#121212" stroke-miterlimit="10"/>
<path d="M120.46 151.064L153.08 151.977L153.77 149.463L120.46 151.064Z" fill="#121212" stroke="#121212" stroke-linecap="round" stroke-linejoin="round"/>
<path d="M118.819 182.985C118.819 182.985 118.177 162.655 118.159 151.621L118.819 182.985Z" fill="white"/>
<path d="M118.819 182.985C118.819 182.985 118.177 162.655 118.159 151.621" stroke="#121212" stroke-miterlimit="10"/>
<path d="M143.819 59.6807L148.577 62.8705C148.577 62.8705 154.21 67.8864 155.596 72.0367C156.982 76.1869 155.977 100.834 154.579 108.796C153.181 116.759 156.673 126.678 157.916 132.275C159.159 137.872 159.7 148.283 159.7 148.283C159.7 148.283 160.58 149.504 145.306 150.032C130.031 150.56 119.378 151.354 118.129 151.603C117.374 151.757 116.609 151.854 115.839 151.894L115.244 146.486L113.763 150.939L110.593 150.216C110.593 150.216 112.562 140.54 113.055 136.769C113.549 132.998 116.666 120.168 116.707 115.342C116.749 110.515 112.704 102.749 111.913 97.9698C111.122 93.1911 112.716 84.9973 116.672 78.8075C120.627 72.6177 123.28 70.2224 131.013 63.9021C138.745 57.5819 143.819 59.6807 143.819 59.6807Z" fill="#E73A2E" stroke="#121212" stroke-miterlimit="10"/>
<path d="M131.417 131.925L147.376 133.727L146.478 129.559L136.526 128.711" stroke="#121212" stroke-miterlimit="10"/>
<path d="M125.838 128.48L125.035 131.208L129.038 131.658" stroke="#121212" stroke-miterlimit="10"/>
<path d="M131.833 101.225C131.083 100.532 130.395 99.7766 129.775 98.9659" stroke="#121212" stroke-miterlimit="10"/>
<path d="M137.383 105.897C137.383 105.897 135.699 104.628 133.855 103.051" stroke="#121212" stroke-miterlimit="10"/>
<path d="M143.819 59.6807C143.819 59.6807 138.745 57.576 131.013 63.9021C123.28 70.2283 120.633 72.6295 116.66 78.8075C114.286 82.6268 112.709 86.8834 112.021 91.3235C112.116 91.786 112.217 92.2543 112.33 92.7346C114.542 102.055 117.005 106.561 117.005 106.561C117.005 106.561 121.288 85.3234 128.741 76.7146C136.194 68.1058 148.571 62.8705 148.571 62.8705L143.819 59.6807Z" fill="#E73A2E" stroke="#121212" stroke-miterlimit="10"/>
<path d="M125.219 18.2553C125.219 18.2553 119.634 23.455 119.217 27.5519C118.801 31.6488 118.367 35.1824 117.671 36.5046C116.975 37.8267 113.466 38.6923 114.655 40.6904C115.845 42.6884 116.957 42.6469 116.957 42.6469C116.957 42.6469 118.742 51.487 120.098 52.7261C121.454 53.9653 126.254 53.2538 126.254 53.2538L127.741 63.9733C127.741 63.9733 117.754 72.8016 115.809 85.1041C113.864 97.4067 116.089 104.427 116.089 104.427C116.089 104.427 117.391 85.0448 121.888 77.7878C126.385 70.5308 136.83 63.6591 138.37 62.42C139.911 61.1808 143.819 59.6689 143.819 59.6689C143.819 59.6689 141.963 55.5187 141.713 53.6451C141.463 51.7716 141.546 49.0146 141.897 48.2617C142.248 47.5087 148.488 45.2498 150.82 38.1232C153.151 30.9966 149.719 22.5834 146.061 19.0023C142.403 15.4212 129.894 13.6426 125.219 18.2553Z" fill="white" stroke="#121212" stroke-linecap="round" stroke-linejoin="round"/>
<path d="M150.843 38.1349C153.222 31.0202 149.743 22.5952 146.085 19.0141C142.427 15.433 129.9 13.6425 125.225 18.2552C125.225 18.2552 124.927 18.5338 124.463 19.0141C126.24 18.5712 128.092 18.5106 129.894 18.8362C133.635 19.4291 133.552 22.3936 132.535 25.2335C131.518 28.0735 132.285 28.5775 134.194 29.9767C136.104 31.3759 134.147 34.0617 135.491 35.1289C136.835 36.1962 137.93 30.3858 140.844 34.5716C143.759 38.7575 141.802 40.6547 139.982 41.8286C138.963 42.5072 137.856 43.0456 136.693 43.4295C136.693 43.4295 139.447 46.6489 142.165 47.977C143.468 47.0105 148.726 44.5382 150.843 38.1349Z" fill="#121212" stroke="#121212" stroke-linecap="round" stroke-linejoin="round"/>
<path d="M119.985 44.2121C119.985 44.2121 123.881 43.8919 125.683 42.1606" stroke="#121212" stroke-miterlimit="10"/>
<path d="M122.459 35.04C122.489 35.959 122.138 36.7179 121.68 36.7357C121.222 36.7535 120.817 36.0183 120.782 35.0993C120.746 34.1803 121.103 33.4214 121.561 33.4036C122.019 33.3858 122.423 34.121 122.459 35.04Z" fill="#121212"/>
<path d="M120.782 31.2871C120.782 31.2871 122.037 29.6032 123.833 31.5894" stroke="#121212" stroke-miterlimit="10"/>
<path d="M126.254 53.2656L130.893 51.5225L127.664 57.315L126.254 53.2656Z" fill="#121212" stroke="#121212" stroke-miterlimit="10"/>
<path d="M112.877 138.358L106.78 163.935L112.252 165.198L115.256 146.504L112.877 138.358Z" fill="#121212" stroke="#121212" stroke-linecap="round" stroke-linejoin="round"/>
<path d="M118.26 77.1415C117.09 79.679 116.266 82.3608 115.809 85.1159C113.864 97.4125 116.089 104.438 116.089 104.438C116.089 104.438 117.38 85.3175 121.799 77.9538C120.592 77.818 119.405 77.5454 118.26 77.1415Z" fill="white" stroke="#121212" stroke-miterlimit="10"/>
<path d="M137.08 85.1218L136.663 106.822L98.5659 113.083L99.3986 123.31C99.3986 123.31 120.544 123.725 130.382 122.889C140.22 122.053 148.821 121.431 150.058 120.387C151.296 119.344 154.882 99.1734 156.346 84.9854C157.809 70.7974 154.882 66.0128 149.024 66.831" fill="#E73A2E"/>
<path d="M137.08 85.1218L136.663 106.822L98.5659 113.083L99.3986 123.31C99.3986 123.31 120.544 123.725 130.382 122.889C140.22 122.053 148.821 121.431 150.058 120.387C151.296 119.344 154.882 99.1734 156.346 84.9854C157.809 70.7974 154.882 66.0128 149.024 66.831" stroke="#121212" stroke-miterlimit="10"/>
<path d="M75.7726 112.164L72.7212 121.389L75.6952 123.002C75.6952 123.002 79.4723 125.919 81.5422 127.496C83.6121 129.073 85.2003 129.073 86.3007 128.587C87.4011 128.101 92.3915 121.057 92.9982 119.723C93.6049 118.389 90.6844 114.387 87.7639 112.679C84.8434 110.972 82.4106 110.984 80.6976 111.494C79.0761 111.845 77.4293 112.069 75.7726 112.164Z" fill="white" stroke="#121212" stroke-miterlimit="10"/>
<path d="M98.5658 113.083L93.7479 112.668C92.2364 112.275 90.6975 111.995 89.1441 111.832C87.889 111.832 86.2117 113.083 85.373 113.711C84.5343 114.34 75.3267 124.354 75.3267 124.354C75.3267 124.354 76.1653 126.02 77.4204 125.605C78.6754 125.19 80.9892 124.14 80.9892 124.14C80.9892 124.14 78.4791 126.648 79.7342 127.899C80.9892 129.15 83.083 129.15 83.083 129.15L84.5521 128.314C85.1697 128.8 85.8801 129.155 86.6399 129.358C87.6868 129.565 89.3641 129.15 90.8036 128.314C92.243 127.478 95.9843 123.126 95.9843 123.126L99.1963 121.887L98.5658 113.083Z" fill="white" stroke="#121212" stroke-linecap="round" stroke-linejoin="round"/>
<path d="M77.4321 112.561C77.4321 112.561 83.523 109.039 86.1996 110.012C88.8762 110.984 92.4154 116.931 91.4399 117.784C90.4644 118.638 88.8822 118.265 88.0316 117.417C87.3202 116.773 86.5449 116.203 85.7178 115.715C84.1137 116.613 82.3164 117.114 80.4775 117.174" fill="white"/>
<path d="M77.4321 112.561C77.4321 112.561 83.523 109.039 86.1996 110.012C88.8762 110.984 92.4154 116.931 91.4399 117.784C90.4644 118.638 88.8822 118.265 88.0316 117.417C87.3202 116.773 86.5449 116.203 85.7178 115.715C84.1137 116.613 82.3164 117.114 80.4775 117.174" stroke="#121212" stroke-miterlimit="10"/>
<path d="M95.5974 126.346L93.6642 125.314C93.5085 125.232 93.3707 125.12 93.2585 124.984C93.1464 124.849 93.0622 124.692 93.0108 124.524C92.9594 124.356 92.9418 124.18 92.959 124.005C92.9762 123.83 93.0279 123.661 93.1111 123.506C93.1941 123.351 93.3069 123.214 93.4431 123.103C93.5793 122.992 93.7361 122.909 93.9046 122.858C94.0731 122.807 94.25 122.79 94.4252 122.808C94.6003 122.825 94.7702 122.877 94.9252 122.96L96.8584 123.986C97.1717 124.153 97.4058 124.437 97.5094 124.776C97.6131 125.115 97.5779 125.481 97.4115 125.794C97.2437 126.107 96.9586 126.34 96.6186 126.443C96.2787 126.547 95.9115 126.512 95.5974 126.346Z" fill="white" stroke="#121212" stroke-miterlimit="10"/>
<path d="M93.8904 128.409L91.9573 127.377C91.6517 127.21 91.4233 126.931 91.32 126.599C91.2168 126.268 91.247 125.909 91.4041 125.599C91.5728 125.295 91.853 125.069 92.1859 124.967C92.5187 124.865 92.8781 124.896 93.1885 125.053L95.1216 126.079C95.4283 126.245 95.6578 126.524 95.7611 126.856C95.8644 127.188 95.8335 127.548 95.6748 127.858C95.5082 128.163 95.2284 128.392 94.8951 128.495C94.5617 128.598 94.2012 128.567 93.8904 128.409Z" fill="white" stroke="#121212" stroke-miterlimit="10"/>
<path d="M91.9396 130.229L90.0065 129.198C89.8507 129.115 89.7128 129.003 89.6009 128.868C89.4889 128.732 89.405 128.576 89.3541 128.407C89.3032 128.239 89.2863 128.063 89.3044 127.888C89.3224 127.713 89.3751 127.544 89.4593 127.389C89.5423 127.235 89.6551 127.098 89.7913 126.987C89.9275 126.875 90.0843 126.792 90.2528 126.741C90.4213 126.691 90.5982 126.674 90.7734 126.691C90.9485 126.709 91.1184 126.761 91.2734 126.844L93.2066 127.875C93.3618 127.958 93.4991 128.071 93.6106 128.206C93.7221 128.342 93.8057 128.498 93.8565 128.666C93.9074 128.834 93.9244 129.011 93.9068 129.185C93.8892 129.36 93.8372 129.529 93.7538 129.684C93.6707 129.838 93.5579 129.975 93.4217 130.087C93.2856 130.198 93.1287 130.281 92.9602 130.332C92.7917 130.382 92.6148 130.399 92.4397 130.382C92.2645 130.364 92.0946 130.312 91.9396 130.229Z" fill="white" stroke="#121212" stroke-miterlimit="10"/>
<path d="M87.8354 130.318L87.3298 130.051C87.1741 129.969 87.0362 129.857 86.9241 129.721C86.8119 129.586 86.7278 129.43 86.6764 129.262C86.625 129.094 86.6074 128.917 86.6246 128.742C86.6418 128.568 86.6934 128.398 86.7766 128.243C86.9444 127.931 87.2295 127.697 87.5695 127.594C87.9095 127.491 88.2767 127.526 88.5908 127.692L89.0964 127.964C89.2521 128.047 89.3899 128.159 89.5021 128.294C89.6142 128.43 89.6984 128.586 89.7498 128.754C89.8012 128.922 89.8188 129.098 89.8016 129.273C89.7844 129.448 89.7327 129.618 89.6495 129.773C89.5665 129.927 89.4537 130.064 89.3175 130.175C89.1813 130.287 89.0245 130.37 88.856 130.421C88.6875 130.471 88.5106 130.488 88.3354 130.471C88.1603 130.453 87.9904 130.401 87.8354 130.318Z" fill="white" stroke="#121212" stroke-miterlimit="10"/>
<path d="M75.7729 112.158L50.208 101.385L51.1478 118.265L72.2635 123.085L75.7729 112.158Z" fill="#121212" stroke="#121212" stroke-linecap="round" stroke-linejoin="round"/>
<path d="M72.2633 123.085L75.7727 112.158L72.1979 110.587L72.1265 110.948L68.8491 122.267L72.2633 123.085Z" fill="white" stroke="#121212" stroke-miterlimit="10"/>
<path d="M35.8433 44.6449L42.3862 47.6746C42.3862 47.6746 45.1342 55.4356 44.2182 55.6609C43.3022 55.8862 36.4321 50.4138 36.4321 50.4138L35.8433 44.6449Z" fill="white" stroke="#121212" stroke-linecap="round" stroke-linejoin="round"/>
<path d="M39.6442 43.0915L40.1022 40.4769C40.1022 40.4769 46.1692 40.8919 48.5961 40.8741C51.0229 40.8563 53.1404 40.548 53.1225 37.9808C53.1047 35.4135 51.6891 26.6565 51.6891 26.6565C51.6891 26.6565 54.4133 26.034 55.4661 24.8185C56.5189 23.6031 54.9962 22.1031 53.6222 20.2947C52.2482 18.4864 51.0169 16.5358 50.8563 14.4192C50.6957 12.3025 47.0079 5.37753 47.0079 5.37753C47.0079 5.37753 47.6027 4.31624 45.622 2.06324C43.6413 -0.189754 33.482 -0.581064 26.9807 2.65614C20.4795 5.89334 18.9984 10.5653 19.0281 15.6998C19.0579 20.8343 22.0022 28.0735 22.0022 28.0735C22.0022 28.0735 20.0809 35.9412 19.9322 36.374C19.7835 36.8069 18.0586 40.1804 18.0586 40.1804C18.0586 40.1804 26.1896 45.8307 29.1577 48.3683C32.1258 50.9059 38.8293 55.2459 38.8709 52.898C38.9126 50.5501 39.1802 45.2497 39.1802 45.2497L39.6442 43.0915Z" fill="white" stroke="#121212" stroke-linecap="round" stroke-linejoin="round"/>
<path d="M48.6076 18.5695C48.6433 19.447 48.4411 20.1644 48.1496 20.1762C47.8582 20.1881 47.5845 19.4944 47.5548 18.6169C47.5251 17.7394 47.7154 17.022 48.0128 17.0102C48.3102 16.9983 48.566 17.692 48.6076 18.5695Z" fill="#121212"/>
<path d="M44.3428 15.6701C44.3428 15.6701 45.693 13.3934 49.1905 14.7334" stroke="#121212" stroke-width="2" stroke-linecap="round" stroke-linejoin="round"/>
<path d="M53.1222 37.9808C53.1222 35.4076 51.6887 26.6565 51.6887 26.6565C51.6887 26.6565 50.0173 25.7612 46.8351 26.532C43.6528 27.3028 42.7844 32.4609 42.1777 33.0538C41.571 33.6467 37.6155 30.0894 36.0809 27.6526C34.5463 25.2158 33.4638 21.0477 33.2972 18.6109C33.1307 16.1741 38.8825 14.9468 39.7806 12.682C40.6788 10.4171 36.4378 8.00405 37.9189 6.49216C39.4 4.98028 42.4632 5.56132 43.98 5.85184C45.014 5.99122 46.0663 5.82636 47.0076 5.37753C47.0076 5.37753 47.6024 4.31624 45.6217 2.06324C43.6409 -0.189754 33.4816 -0.581064 26.9804 2.65614C20.4791 5.89334 18.998 10.5653 19.0278 15.6998C19.0575 19.8501 20.9847 25.3996 21.7104 27.3561C22.3245 27.6208 22.9863 27.758 23.6554 27.7593C24.2502 27.6051 24.7022 25.7909 24.9937 23.9707C25.2852 22.1505 29.6689 20.0161 29.6689 20.0161C29.6689 20.0161 30.46 25.4529 30.4659 26.5083C30.4719 27.5636 29.8711 32.8582 32.7976 35.4017C35.089 37.295 37.5319 38.9983 40.1018 40.4946C40.1018 40.4946 46.1689 40.9097 48.5957 40.8919C51.0225 40.8741 53.14 40.548 53.1222 37.9808Z" fill="#121212" stroke="#121212" stroke-linecap="round" stroke-linejoin="round"/>
<path d="M30.6028 23.7633C30.6028 23.7633 29.3418 16.5181 27.2243 16.8323C25.1068 17.1466 23.9053 19.8739 24.9878 23.3542C26.0704 26.8344 28.1938 26.5084 29.4013 26.2001" fill="white"/>
<path d="M30.6028 23.7633C30.6028 23.7633 29.3418 16.5181 27.2243 16.8323C25.1068 17.1466 23.9053 19.8739 24.9878 23.3542C26.0704 26.8344 28.1938 26.5084 29.4013 26.2001" stroke="#121212" stroke-linecap="round" stroke-linejoin="round"/>
<path d="M45.4907 29.2593C45.4907 29.2593 46.7101 30.7652 49.8923 30.7474" stroke="white" stroke-linecap="round" stroke-linejoin="round"/>
<path d="M11.4561 183.578H43.5757C43.6828 181.894 44.9319 175.42 44.9319 171.175C44.9319 166.271 48.3164 134.64 48.3164 134.64L6.54297 134.095L7.91103 153.453L11.4561 183.578Z" fill="#121212" stroke="#121212" stroke-linecap="round" stroke-linejoin="round"/>
<path d="M15.6198 41.2832C15.6198 41.2832 8.29771 50.645 6.23373 55.8921C4.16974 61.1392 2.56971 62.0523 3.02771 68.669C3.48571 75.2857 6.69768 101.758 6.69768 101.758L0.285645 136.223C7.85362 138.926 15.8308 140.314 23.8698 140.326C37.1459 140.326 42.9037 139.188 43.7899 138.731C44.6762 138.275 52.712 136.223 52.712 136.223C52.712 136.223 52.712 97.1991 50.1901 83.7344C47.6681 70.2698 44.468 60.0187 43.326 57.487C42.1839 54.9553 38.514 46.7615 38.514 46.7615L15.6198 41.2832Z" fill="#121212" stroke="#121212" stroke-linecap="round" stroke-linejoin="round"/>
<path d="M43.3439 57.487C42.1959 54.9791 38.5319 46.7615 38.5319 46.7615L15.6199 41.2832C15.6199 41.2832 14.0734 43.2635 12.1997 45.9137C17.1901 48.8011 29.5443 55.9395 30.2759 56.1174C31.1919 56.3486 35.772 55.8921 35.772 55.8921L33.7258 58.4001C33.7258 58.4001 39.2218 62.7401 41.0539 64.5602C42.0174 65.5207 44.813 68.0583 47.2518 70.252C45.5922 63.6946 44.0576 59.0641 43.3439 57.487Z" fill="#121212" stroke="#121212" stroke-linecap="round" stroke-linejoin="round"/>
<path d="M32.8096 51.7834L40.5897 57.9435L47.0017 69.3508L42.8797 52.6964L34.4096 47.8999L32.8096 51.7834Z" fill="white" stroke="#121212" stroke-linecap="round" stroke-linejoin="round"/>
<path d="M17.2377 36.9492L41.2144 47.7162V56.159L13.8057 42.1963L17.2377 36.9492Z" fill="white" stroke="#121212" stroke-linecap="round" stroke-linejoin="round"/>
<path d="M48.9347 123.316H7.51221V156.726H48.9347V123.316Z" fill="#E73A2E" stroke="#121212" stroke-miterlimit="10"/>
<path d="M30.7696 139.241C30.7696 139.241 33.8507 143.243 35.0581 143.646C36.0747 144.063 36.9153 144.817 37.4373 145.781C37.9727 146.581 38.627 152.587 39.0433 152.99C39.4597 153.394 39.4478 154.324 37.9727 153.654C36.4976 152.984 35.5934 150.69 35.5934 150.69L36.1288 156.026C36.1288 156.026 37.3184 156.293 36.3964 156.963C35.4745 157.633 34.6536 158.564 33.8507 158.149C33.1362 157.725 32.4648 157.232 31.8462 156.678C30.8895 156.998 29.8707 157.09 28.8721 156.945C27.4029 156.678 27.6825 157.212 26.3323 156.275C24.9821 155.338 24.988 156.411 24.3218 154.674C23.2841 151.566 22.434 148.398 21.7761 145.188C21.5084 143.451 21.2407 141.038 21.2407 141.038L30.7696 139.241Z" fill="white" stroke="#121212" stroke-linecap="round" stroke-linejoin="round"/>
<path d="M31.3049 136.704L32.2447 140.842L20.7232 142.443L20.1938 138.304L31.3049 136.704Z" fill="white" stroke="#121212" stroke-linecap="round" stroke-linejoin="round"/>
<path d="M16.5533 49.5067C16.5533 49.5067 8.54125 52.0147 8.31523 55.6669C8.0892 59.3191 5.43041 103.614 6.57839 106.579C7.72637 109.543 18.9861 139.585 18.9861 139.585L32.0362 137.99C32.0362 137.99 25.3505 103.152 25.1364 102.464C24.9223 101.776 29.6213 62.9654 29.6213 62.9654" fill="#121212"/>
<path d="M16.5533 49.5067C16.5533 49.5067 8.54125 52.0147 8.31523 55.6669C8.0892 59.3191 5.43041 103.614 6.57839 106.579C7.72637 109.543 18.9861 139.585 18.9861 139.585L32.0362 137.99C32.0362 137.99 25.3505 103.152 25.1364 102.464C24.9223 101.776 29.6213 62.9654 29.6213 62.9654" stroke="#121212" stroke-linecap="round" stroke-linejoin="round"/>
<path d="M28.0689 74.1118L25.1187 102.464L27.9321 120.079" stroke="#878787" stroke-linecap="round" stroke-linejoin="round"/>
<path d="M28.521 69.7719L28.3604 71.2778" stroke="#878787" stroke-linecap="round" stroke-linejoin="round"/>
<path d="M7.3935 65.3844L6.51318 91.9994" stroke="#878787" stroke-linecap="round" stroke-linejoin="round"/>
<path d="M37.3244 115.425L46.1276 115.11L46.9127 118.265L32.334 119.201" stroke="#878787" stroke-linecap="round" stroke-linejoin="round"/>
<path d="M29.9844 115.692L34.6715 115.525" stroke="#878787" stroke-linecap="round" stroke-linejoin="round"/>
<path d="M14.1387 46.6667L30.2877 56.1175L35.7837 55.8922L33.7257 58.4001L44.3609 66.8489" stroke="#878787" stroke-linecap="round" stroke-linejoin="round"/>
<path d="M34.3442 183.578H147.054" stroke="#121212" stroke-miterlimit="10"/>
</g>
<defs>
<clipPath id="clip0_415_5459">
<rect width="173" height="183.874" fill="white"/>
</clipPath>
</defs>
</svg>
