<svg width="150" height="229" viewBox="0 0 150 229" fill="none" xmlns="http://www.w3.org/2000/svg">
<g clip-path="url(#clip0_168_6117)">
<path d="M34.9711 138.993C37.1088 128.089 31.9247 117.901 23.392 116.238C14.8592 114.575 6.20915 122.067 4.07141 132.971C1.93366 143.875 7.1178 154.062 15.6505 155.725C24.1832 157.388 32.8333 149.897 34.9711 138.993Z" fill="#E73A2E" stroke="#121212" stroke-miterlimit="10"/>
<path d="M94.3374 116.994C94.3374 116.994 106.879 97.6868 121.491 100.811C131.222 102.894 125.504 121.355 125.504 121.355" fill="#E73A2E"/>
<path d="M94.3374 116.994C94.3374 116.994 106.879 97.6868 121.491 100.811C131.222 102.894 125.504 121.355 125.504 121.355" stroke="#121212" stroke-miterlimit="10"/>
<path d="M122.218 123.164H122.254L123.152 122.933C123.152 122.933 128.742 106.001 120.599 106.214C113.727 106.391 104.478 122.208 101.766 127.129C107.062 123.456 114.429 121.812 122.218 123.164Z" fill="#121212" stroke="#121212" stroke-miterlimit="10"/>
<path d="M61.6859 205.6L58.2589 220.68C57.7351 222.951 56.4542 224.978 54.6257 226.429C52.7972 227.881 50.529 228.671 48.1917 228.671C45.8566 228.668 43.5912 227.877 41.7652 226.426C39.9391 224.974 38.6601 222.949 38.1367 220.68L32.1074 194.144" fill="#121212"/>
<path d="M61.6859 205.6L58.2589 220.68C57.7351 222.951 56.4542 224.978 54.6257 226.429C52.7972 227.881 50.529 228.671 48.1917 228.671C45.8566 228.668 43.5912 227.877 41.7652 226.426C39.9391 224.974 38.6601 222.949 38.1367 220.68L32.1074 194.144" stroke="#121212" stroke-miterlimit="10"/>
<path d="M114.068 205.6L110.629 220.753C110.104 223.006 108.829 225.016 107.012 226.453C105.195 227.891 102.943 228.673 100.623 228.671C98.2748 228.671 95.9981 227.866 94.1734 226.393C92.3488 224.92 91.0868 222.866 90.5984 220.577L87.1592 204.528" fill="#121212"/>
<path d="M114.068 205.6L110.629 220.753C110.104 223.006 108.829 225.016 107.012 226.453C105.195 227.891 102.943 228.673 100.623 228.671C98.2748 228.671 95.9981 227.866 94.1734 226.393C92.3488 224.92 91.0868 222.866 90.5984 220.577L87.1592 204.528" stroke="#121212" stroke-miterlimit="10"/>
<path d="M144.282 160.511C144.282 178.923 134.508 195.422 119.084 206.526C106.5 215.588 90.1591 221.058 72.2971 221.058C32.5354 221.058 0.305664 193.948 0.305664 160.511C0.305664 127.074 32.5354 99.9585 72.2971 99.9585C112.059 99.9585 144.282 127.068 144.282 160.511Z" fill="#E73A2E" stroke="#121212" stroke-miterlimit="10"/>
<path d="M131.051 189.959C127.101 195.466 122.267 200.286 116.744 204.224C112.928 206.963 108.845 209.314 104.557 211.24" stroke="#121212" stroke-miterlimit="10"/>
<path d="M138.851 173.777C137.932 177.034 136.692 180.192 135.149 183.205L138.851 173.777Z" fill="white"/>
<path d="M138.851 173.777C137.932 177.034 136.692 180.192 135.149 183.205" stroke="#121212" stroke-miterlimit="10"/>
<path d="M14.6367 129.565C16.9386 126.551 19.5197 123.759 22.3459 121.227" stroke="#121212" stroke-miterlimit="10"/>
<path d="M11.2095 186.403C6.4314 178.603 3.90332 169.641 3.90332 160.502C3.90332 151.363 6.4314 142.401 11.2095 134.602" stroke="#121212" stroke-miterlimit="10"/>
<path d="M104.557 211.24C94.4087 215.759 83.4118 218.074 72.2969 218.031C59.6502 218.101 47.1781 215.086 35.9683 209.248" stroke="#121212" stroke-miterlimit="10"/>
<path d="M105.26 127.226C105.26 130.765 103.714 133.627 101.814 133.627C100.098 133.627 98.6745 131.288 98.418 128.225" stroke="#121212" stroke-miterlimit="10"/>
<path d="M123.048 125.704C123.048 128.323 121.906 130.442 120.501 130.442C119.224 130.442 118.167 128.706 117.978 126.434" stroke="#121212" stroke-miterlimit="10"/>
<path d="M87.1287 104.801C85.9403 105.208 84.7775 105.686 83.6467 106.232C82.9564 106.567 82.4249 106.884 81.9729 107.146C81.0606 107.036 80.1443 106.945 79.224 106.872C76.9434 106.669 74.6343 106.569 72.2967 106.573C62.2187 106.544 52.2276 108.432 42.8587 112.134C41.2948 112.755 39.7656 113.425 38.271 114.144C40.8108 111.534 43.7161 109.304 46.8965 107.523C55.0859 104.801 63.6642 103.423 72.2967 103.443C77.272 103.44 82.237 103.894 87.1287 104.801Z" fill="white" stroke="#121212" stroke-miterlimit="10"/>
<path d="M83.6469 106.25L79.2242 106.859C76.9436 106.656 74.6345 106.557 72.2969 106.561C62.2189 106.532 52.2279 108.419 42.8589 112.122C44.1506 111.17 45.499 110.298 46.8968 109.509C55.0865 106.788 63.6644 105.407 72.2969 105.422C76.095 105.434 79.8875 105.711 83.6469 106.25Z" fill="#121212" stroke="#121212" stroke-miterlimit="10"/>
<path d="M121.643 170.719C125.847 170.719 129.255 162.724 129.255 152.862C129.255 142.999 125.847 135.004 121.643 135.004C117.44 135.004 114.032 142.999 114.032 152.862C114.032 162.724 117.44 170.719 121.643 170.719Z" fill="#121212" stroke="#121212" stroke-miterlimit="10"/>
<path d="M126.884 165.079C136.776 165.079 144.795 157.084 144.795 147.222C144.795 137.359 136.776 129.364 126.884 129.364C116.993 129.364 108.974 137.359 108.974 147.222C108.974 157.084 116.993 165.079 126.884 165.079Z" fill="#E73A2E" stroke="#121212" stroke-miterlimit="10"/>
<path d="M131.784 165.079C141.676 165.079 149.695 157.084 149.695 147.222C149.695 137.359 141.676 129.364 131.784 129.364C121.892 129.364 113.873 137.359 113.873 147.222C113.873 157.084 121.892 165.079 131.784 165.079Z" fill="#E73A2E" stroke="#121212" stroke-miterlimit="10"/>
<path d="M126.616 153.696C128.697 153.696 130.385 150.92 130.385 147.496C130.385 144.071 128.697 141.295 126.616 141.295C124.534 141.295 122.847 144.071 122.847 147.496C122.847 150.92 124.534 153.696 126.616 153.696Z" fill="#121212" stroke="#121212" stroke-miterlimit="10"/>
<path d="M140.11 152.728C142.192 152.728 143.879 149.952 143.879 146.527C143.879 143.103 142.192 140.327 140.11 140.327C138.028 140.327 136.341 143.103 136.341 146.527C136.341 149.952 138.028 152.728 140.11 152.728Z" fill="#121212" stroke="#121212" stroke-miterlimit="10"/>
<path d="M44.3127 205.6L40.8857 220.68C40.3613 222.953 39.0787 224.982 37.2477 226.433C35.4166 227.885 33.1456 228.674 30.8062 228.671C28.4651 228.672 26.1932 227.879 24.3637 226.423C22.5343 224.966 21.2561 222.932 20.739 220.656L14.7036 194.119" fill="#E73A2E"/>
<path d="M44.3127 205.6L40.8857 220.68C40.3613 222.953 39.0787 224.982 37.2477 226.433C35.4166 227.885 33.1456 228.674 30.8062 228.671C28.4651 228.672 26.1932 227.879 24.3637 226.423C22.5343 224.966 21.2561 222.932 20.739 220.656L14.7036 194.119" stroke="#121212" stroke-miterlimit="10"/>
<path d="M95.626 205.6L92.1868 220.753C91.6643 223.006 90.3908 225.016 88.5745 226.454C86.7581 227.892 84.5062 228.674 82.1868 228.671C79.8377 228.672 77.5596 227.868 75.7337 226.395C73.9077 224.921 72.6448 222.867 72.1563 220.577L68.7231 204.528" fill="#E73A2E"/>
<path d="M95.626 205.6L92.1868 220.753C91.6643 223.006 90.3908 225.016 88.5745 226.454C86.7581 227.892 84.5062 228.674 82.1868 228.671C79.8377 228.672 77.5596 227.868 75.7337 226.395C73.9077 224.921 72.6448 222.867 72.1563 220.577L68.7231 204.528" stroke="#121212" stroke-miterlimit="10"/>
<path d="M65.626 126.867C65.626 126.867 67.4586 104.466 82.8404 98.1437C93.097 93.929 97.2753 111.604 97.2753 111.604" fill="#E73A2E"/>
<path d="M65.626 126.867C65.626 126.867 67.4586 104.466 82.8404 98.1437C93.097 93.929 97.2753 111.604 97.2753 111.604" stroke="#121212" stroke-miterlimit="10"/>
<path d="M95.1434 114.948H95.1861L95.9131 114.235C95.9131 114.235 92.4067 97.8272 84.8379 102.858C78.4482 107.121 77.929 124.839 77.9229 130.266C81.0078 124.236 87.0982 118.56 95.1434 114.948Z" fill="#121212" stroke="#121212" stroke-miterlimit="10"/>
<path d="M62.859 102.425C72.0896 102.425 79.5725 94.9647 79.5725 85.7615C79.5725 76.5583 72.0896 69.0977 62.859 69.0977C53.6284 69.0977 46.1455 76.5583 46.1455 85.7615C46.1455 94.9647 53.6284 102.425 62.859 102.425Z" fill="white" stroke="#121212" stroke-linejoin="round"/>
<path d="M60.8917 102.425C70.1223 102.425 77.6052 94.9647 77.6052 85.7615C77.6052 76.5583 70.1223 69.0977 60.8917 69.0977C51.6611 69.0977 44.1782 76.5583 44.1782 85.7615C44.1782 94.9647 51.6611 102.425 60.8917 102.425Z" fill="white" stroke="#121212" stroke-linejoin="round"/>
<path d="M60.8921 99.1546C68.311 99.1546 74.3252 93.1582 74.3252 85.7614C74.3252 78.3645 68.311 72.3682 60.8921 72.3682C53.4732 72.3682 47.459 78.3645 47.459 85.7614C47.459 93.1582 53.4732 99.1546 60.8921 99.1546Z" fill="white" stroke="#121212" stroke-linejoin="round"/>
<path d="M48.6194 85.7616C48.6158 82.3109 49.9476 78.9919 52.3373 76.4959C54.727 73.9998 57.9904 72.5192 61.4478 72.3623H60.8674C57.3031 72.3623 53.8848 73.774 51.3645 76.2869C48.8441 78.7997 47.4282 82.2079 47.4282 85.7616C47.4282 89.3153 48.8441 92.7235 51.3645 95.2363C53.8848 97.7492 57.3031 99.1609 60.8674 99.1609C61.0629 99.1609 61.2584 99.1609 61.4478 99.1609C57.9904 99.004 54.727 97.5234 52.3373 95.0273C49.9476 92.5313 48.6158 89.2123 48.6194 85.7616Z" fill="white" stroke="#121212" stroke-linejoin="round"/>
<path d="M73.3475 72.9165H72.0708" stroke="#121212" stroke-linejoin="round"/>
<path d="M74.9725 74.4209H74.0439" stroke="#121212" stroke-linejoin="round"/>
<path d="M77.0617 76.729H76.0171" stroke="#121212" stroke-linejoin="round"/>
<path d="M78.2224 79.6221H76.8296" stroke="#121212" stroke-linejoin="round"/>
<path d="M79.267 82.7466H77.9902" stroke="#121212" stroke-linejoin="round"/>
<path d="M79.2668 89.3428H77.874" stroke="#121212" stroke-linejoin="round"/>
<path d="M73.812 97.2119H74.9727" stroke="#121212" stroke-linejoin="round"/>
<path d="M71.8389 98.7163H73.1156" stroke="#121212" stroke-linejoin="round"/>
<path d="M69.7495 100.336H71.0262" stroke="#121212" stroke-linejoin="round"/>
<path d="M71.1426 71.2964H69.1694" stroke="#121212" stroke-linejoin="round"/>
<path d="M60.2079 81.1997C60.2079 79.9815 60.6905 79.543 61.5335 79.543C62.3765 79.543 62.8591 79.9998 62.8591 81.1997V81.8879H65.3637V81.3641C65.3637 79.0801 64.3985 77.6367 62.5231 77.253V76.0044H60.3545V77.253C58.5219 77.661 57.5567 79.0801 57.5567 81.3641C57.5567 86.1635 62.7369 86.334 62.7369 89.7935C62.7369 91.0116 62.2055 91.4258 61.3624 91.4258C60.5194 91.4258 59.9941 90.9933 59.9941 89.7935V88.4718H57.4834V89.6229C57.4834 91.9069 58.4486 93.3687 60.3545 93.7524V94.9705H62.5231V93.7524C64.3985 93.3687 65.3881 91.9252 65.3881 89.6229C65.3881 84.8236 60.2079 84.6591 60.2079 81.1997Z" fill="#121212"/>
<path d="M105.663 58.5259C110.472 50.6705 107.984 40.4153 100.105 35.6204C92.2262 30.8254 81.9405 33.3064 77.1312 41.1618C72.322 49.0172 74.8104 59.2723 82.6892 64.0673C90.568 68.8622 100.854 66.3812 105.663 58.5259Z" fill="white" stroke="#121212" stroke-linejoin="round"/>
<path d="M95.8874 65.2216C104.403 61.6701 108.419 51.9082 104.856 43.4179C101.294 34.9276 91.5033 30.924 82.9877 34.4756C74.4721 38.0271 70.4565 47.789 74.0187 56.2793C77.5808 64.7696 87.3718 68.7732 95.8874 65.2216Z" fill="white" stroke="#121212" stroke-linejoin="round"/>
<path d="M101.884 54.9195C104.686 48.0705 101.389 40.2536 94.5196 37.4599C87.6502 34.6663 79.8099 37.9538 77.008 44.8028C74.206 51.6519 77.5033 59.4688 84.3728 62.2624C91.2422 65.0561 99.0824 61.7685 101.884 54.9195Z" fill="white" stroke="#121212" stroke-linejoin="round"/>
<path d="M77.1597 49.8514C77.1564 46.3957 78.4924 43.0724 80.8886 40.5756C83.2847 38.0787 86.5558 36.6014 90.0186 36.4521H89.4382C87.6734 36.4521 85.9258 36.7987 84.2953 37.4721C82.6648 38.1455 81.1832 39.1325 79.9353 40.3767C78.6873 41.6209 77.6974 43.0981 77.022 44.7238C76.3466 46.3494 75.999 48.0918 75.999 49.8514C75.999 51.6111 76.3466 53.3535 77.022 54.9791C77.6974 56.6048 78.6873 58.0819 79.9353 59.3262C81.1832 60.5704 82.6648 61.5574 84.2953 62.2308C85.9258 62.9042 87.6734 63.2507 89.4382 63.2507H90.0186C86.5558 63.1015 83.2847 61.6242 80.8886 59.1273C78.4924 56.6305 77.1564 53.3071 77.1597 49.8514Z" fill="white" stroke="#121212" stroke-linejoin="round"/>
<path d="M101.888 37.0005H100.611" stroke="#121212" stroke-linejoin="round"/>
<path d="M103.513 38.5049H102.584" stroke="#121212" stroke-linejoin="round"/>
<path d="M105.602 40.8193H104.557" stroke="#121212" stroke-linejoin="round"/>
<path d="M106.762 43.7119H105.37" stroke="#121212" stroke-linejoin="round"/>
<path d="M107.807 46.8364H106.53" stroke="#121212" stroke-linejoin="round"/>
<path d="M107.807 53.4326H106.414" stroke="#121212" stroke-linejoin="round"/>
<path d="M102.352 61.2959H103.513" stroke="#121212" stroke-linejoin="round"/>
<path d="M100.379 62.8003H101.656" stroke="#121212" stroke-linejoin="round"/>
<path d="M98.2896 64.4199H99.5663" stroke="#121212" stroke-linejoin="round"/>
<path d="M99.6821 35.3804H97.709" stroke="#121212" stroke-linejoin="round"/>
<path d="M93.4759 46.7877C94.5816 46.3187 95.1925 46.5867 95.5223 47.3602C95.8522 48.1337 95.614 48.755 94.5022 49.2178L93.8913 49.4919L94.8626 51.7942L95.3513 51.5871C97.4649 50.6978 98.4057 49.2544 98.0453 47.3785L99.1998 46.8912L98.3568 44.8996L97.2022 45.3869C96.1027 43.8399 94.4044 43.5597 92.3153 44.4184C87.8742 46.2822 89.7313 51.1181 86.5364 52.4519C85.4246 52.9209 84.8198 52.5981 84.4961 51.8429C84.1723 51.0876 84.3617 50.4177 85.4674 49.9487L86.6891 49.4371L85.7178 47.1349L84.6488 47.5795C82.5413 48.4687 81.5639 49.9243 81.9487 51.8429L80.8125 52.324L81.6555 54.3157L82.7917 53.8345C83.873 55.412 85.614 55.753 87.7215 54.8638C92.1381 52.9514 90.281 48.1276 93.4759 46.7877Z" fill="#121212"/>
<path d="M74.9503 28.7494C81.4773 22.2418 81.4773 11.6908 74.9503 5.18319C68.4233 -1.32445 57.8409 -1.32445 51.3138 5.18319C44.7868 11.6908 44.7868 22.2418 51.3138 28.7494C57.8409 35.2571 68.4233 35.2571 74.9503 28.7494Z" fill="white" stroke="#121212" stroke-linejoin="round"/>
<path d="M67.6164 32.3398C76.132 28.7882 80.1475 19.0264 76.5854 10.5361C73.0232 2.04579 63.2323 -1.95783 54.7167 1.59373C46.2011 5.1453 42.1855 14.9072 45.7477 23.3974C49.3098 31.8877 59.1008 35.8914 67.6164 32.3398Z" fill="white" stroke="#121212" stroke-linejoin="round"/>
<path d="M66.3424 29.3259C73.1886 26.4762 76.4215 18.6325 73.5633 11.8067C70.7051 4.98078 62.8381 1.75747 55.9919 4.6072C49.1457 7.45693 45.9127 15.3006 48.771 22.1264C51.6292 28.9523 59.4962 32.1756 66.3424 29.3259Z" fill="white" stroke="#121212" stroke-linejoin="round"/>
<path d="M48.8941 16.9681C48.8905 13.5175 50.2223 10.1985 52.612 7.7024C55.0017 5.20634 58.2651 3.72569 61.7225 3.56885C61.527 3.56885 61.3376 3.56885 61.1116 3.56885C57.5473 3.56885 54.129 4.98055 51.6086 7.49341C49.0883 10.0063 47.6724 13.4144 47.6724 16.9681C47.6724 20.5219 49.0883 23.93 51.6086 26.4429C54.129 28.9557 57.5473 30.3674 61.1116 30.3674H61.7225C58.2651 30.2106 55.0017 28.7299 52.612 26.2339C50.2223 23.7378 48.8905 20.4188 48.8941 16.9681Z" fill="white" stroke="#121212" stroke-linejoin="round"/>
<path d="M73.6166 4.11719H72.3398" stroke="#121212" stroke-linejoin="round"/>
<path d="M75.2415 5.62158H74.313" stroke="#121212" stroke-linejoin="round"/>
<path d="M77.3302 7.93604H76.2856" stroke="#121212" stroke-linejoin="round"/>
<path d="M78.4909 10.8291H77.0981" stroke="#121212" stroke-linejoin="round"/>
<path d="M79.5355 13.9536H78.2588" stroke="#121212" stroke-linejoin="round"/>
<path d="M79.5359 20.5435H78.1431" stroke="#121212" stroke-linejoin="round"/>
<path d="M74.0806 28.4126H75.2412" stroke="#121212" stroke-linejoin="round"/>
<path d="M72.1074 29.917H73.3841" stroke="#121212" stroke-linejoin="round"/>
<path d="M70.0244 31.5371H71.295" stroke="#121212" stroke-linejoin="round"/>
<path d="M71.4113 2.49707H69.4443" stroke="#121212" stroke-linejoin="round"/>
<path d="M58.3261 13.7647C57.6724 12.7598 57.8252 12.1142 58.5338 11.6574C59.2424 11.2006 59.896 11.3163 60.5497 12.3273L60.9284 12.9059L63.0298 11.5477L62.7427 11.1031C61.5209 9.19067 59.9021 8.50853 58.1123 9.20286L57.4342 8.15527L55.6016 9.33684L56.2858 10.3844C54.9541 11.7304 54.9541 13.4297 56.188 15.3422C58.8087 19.3741 63.2436 16.7004 65.1373 19.6056C65.791 20.6105 65.5832 21.2622 64.8746 21.719C64.166 22.1758 63.488 22.1027 62.8343 21.11L62.1135 20.0015L60.0121 21.3658L60.623 22.3281C61.8447 24.2405 63.4757 24.947 65.2839 24.2344L65.9498 25.2637L67.7824 24.0882L67.1165 23.0589C68.4788 21.719 68.5093 19.9527 67.2571 18.0403C64.6547 13.9901 60.2198 16.6638 58.3261 13.7647Z" fill="#121212"/>
</g>
<defs>
<clipPath id="clip0_168_6117">
<rect width="150" height="229" fill="white"/>
</clipPath>
</defs>
</svg>
