<svg width="174" height="230" viewBox="0 0 174 230" fill="none" xmlns="http://www.w3.org/2000/svg">
<path d="M19.7808 88.4757C27.2347 95.8113 26.9911 107.941 26.9911 107.941C26.9911 107.941 14.6653 108.181 7.21131 100.846C-0.242674 93.5099 0.000916796 81.3798 0.000916796 81.3798C0.000916796 81.3798 12.3268 81.1401 19.7808 88.4757Z" fill="#E73A2E"/>
<path d="M19.7808 113.599C27.2347 120.935 26.9911 133.065 26.9911 133.065C26.9911 133.065 14.6653 133.304 7.21131 125.969C-0.242674 118.633 0.000916796 106.479 0.000916796 106.479C0.000916796 106.479 12.3268 106.263 19.7808 113.599Z" fill="#E73A2E"/>
<path d="M19.7809 138.723C27.2349 146.058 26.9913 158.196 26.9913 158.196C26.9913 158.196 14.6817 158.42 7.21149 151.093C-0.258731 143.765 0.00109912 131.627 0.00109912 131.627C0.00109912 131.627 12.327 131.387 19.7809 138.723Z" fill="#E73A2E"/>
<path d="M59.4379 151.093C66.8919 143.757 66.6564 131.627 66.6564 131.627C66.6564 131.627 54.3305 131.387 46.8766 138.723C39.4226 146.058 39.6581 158.196 39.6581 158.196C39.6581 158.196 51.9839 158.42 59.4379 151.093Z" fill="#E73A2E"/>
<path d="M59.4372 125.969C66.8912 118.633 66.6476 106.479 66.6476 106.479C66.6476 106.479 54.3218 106.239 46.8678 113.575C39.4138 120.91 39.6493 133.04 39.6493 133.04C39.6493 133.04 51.9832 133.304 59.4372 125.969Z" fill="#E73A2E"/>
<path d="M59.4379 100.886C66.8919 93.5499 66.6564 81.4198 66.6564 81.4198C66.6564 81.4198 54.3305 81.1801 46.8766 88.5157C39.4226 95.8513 39.6581 107.981 39.6581 107.981C39.6581 107.981 51.9839 108.181 59.4379 100.886Z" fill="#E73A2E"/>
<path d="M33.0078 86.0708V188.362" stroke="#121212" stroke-linecap="round" stroke-linejoin="round"/>
<path d="M32.6104 85.2878C44.0681 85.2878 53.3565 76.147 53.3565 64.8712C53.3565 53.5954 44.0681 44.4546 32.6104 44.4546C21.1526 44.4546 11.8643 53.5954 11.8643 64.8712C11.8643 76.147 21.1526 85.2878 32.6104 85.2878Z" fill="white" stroke="#121212" stroke-linecap="round" stroke-linejoin="round"/>
<path d="M39.2643 81.7736C48.7589 78.1606 53.4796 67.6571 49.8083 58.3132C46.137 48.9694 35.464 44.3237 25.9694 47.9366C16.4747 51.5496 11.754 62.0532 15.4253 71.397C19.0966 80.7408 29.7696 85.3866 39.2643 81.7736Z" fill="white" stroke="#121212" stroke-linecap="round" stroke-linejoin="round"/>
<path d="M32.5456 80.4295V77.6487C31.667 77.6744 30.7934 77.511 29.9856 77.1701C29.1778 76.8292 28.4553 76.319 27.8686 75.675C26.8401 74.4391 26.2825 72.5932 26.1959 70.1373L30.4831 69.4262C30.4992 70.2659 30.6054 71.1015 30.7998 71.9193C30.9123 72.4778 31.1792 72.9949 31.5712 73.4136C31.7499 73.5795 31.9604 73.7088 32.1905 73.7939C32.4205 73.8789 32.6654 73.9181 32.911 73.909C33.1614 73.9362 33.4146 73.8946 33.6425 73.7888C33.8704 73.683 34.064 73.5172 34.202 73.3097C34.4417 72.8907 34.5623 72.416 34.5512 71.9353C34.5846 71.031 34.3352 70.1385 33.8366 69.3782C33.2794 68.6045 32.6215 67.906 31.8797 67.3006L29.2977 65.1191C28.7162 64.6102 28.1734 64.06 27.6737 63.473C27.2017 62.8989 26.8262 62.2541 26.5613 61.5632C26.2757 60.7461 26.1383 59.886 26.1553 59.0221C26.1075 58.2217 26.2269 57.4202 26.5062 56.667C26.7855 55.9138 27.2188 55.225 27.7793 54.6431C28.9668 53.5511 30.5154 52.9183 32.1396 52.8611V50.2002H33.6012V52.8611C34.546 52.8772 35.4711 53.1302 36.2888 53.5963C36.9627 53.9803 37.5226 54.5313 37.9128 55.1945C38.2915 55.8555 38.5653 56.5696 38.7247 57.312C38.884 58.0466 38.9872 58.7918 39.0333 59.5415L34.6892 60.1728C34.6758 59.5166 34.6134 58.8622 34.5024 58.215C34.4399 57.7318 34.2526 57.2723 33.9584 56.8805C33.8084 56.7132 33.6187 56.5849 33.4063 56.5068C33.1939 56.4288 32.9652 56.4034 32.7405 56.433C32.4873 56.4302 32.2372 56.4885 32.0122 56.6027C31.7871 56.7169 31.5939 56.8837 31.4494 57.0883C31.1571 57.5003 31.0037 57.9922 31.0109 58.4947C30.9741 59.2851 31.2086 60.0648 31.6767 60.7081C32.1421 61.277 32.6496 61.8112 33.1952 62.3063L35.7204 64.4558C36.3889 65.0566 37.0079 65.7086 37.5717 66.4056C38.142 67.1077 38.6044 67.8885 38.944 68.723C39.3001 69.6519 39.4737 70.6389 39.4555 71.6316C39.4685 72.6297 39.2461 73.6171 38.8059 74.5163C38.3816 75.373 37.731 76.1017 36.9221 76.6259C36.052 77.178 35.0557 77.5076 34.0234 77.5848V80.3976L32.5456 80.4295Z" fill="#121212" stroke="white" stroke-linecap="round" stroke-linejoin="round"/>
<path d="M8.64062 90.3457L33.065 113.543" stroke="#121212" stroke-linecap="round" stroke-linejoin="round"/>
<path d="M57.4974 90.3457L33.0649 113.543" stroke="#121212" stroke-linecap="round" stroke-linejoin="round"/>
<path d="M8.64062 115.149L33.065 138.347" stroke="#121212" stroke-linecap="round" stroke-linejoin="round"/>
<path d="M57.4974 115.149L33.0649 138.347" stroke="#121212" stroke-linecap="round" stroke-linejoin="round"/>
<path d="M8.64062 139.953L33.065 163.151" stroke="#121212" stroke-linecap="round" stroke-linejoin="round"/>
<path d="M57.4974 139.953L33.0649 163.151" stroke="#121212" stroke-linecap="round" stroke-linejoin="round"/>
<path d="M39.447 210.264H25.887L19.1069 174.09H46.2352L39.447 210.264Z" fill="#121212" stroke="#121212" stroke-linecap="round" stroke-linejoin="round"/>
<path d="M105.672 10.8364H99.2168V17.1891H105.672V10.8364Z" fill="white" stroke="#121212" stroke-linecap="round" stroke-linejoin="round"/>
<path d="M117.17 10.8364H110.714V17.1891H117.17V10.8364Z" fill="white" stroke="#121212" stroke-linecap="round" stroke-linejoin="round"/>
<path d="M112.404 211.271L115.295 218.287C115.295 218.287 119.882 222.969 119.354 224.64C118.827 226.31 114.596 225.439 113.752 225.135C111.516 224.059 109.359 222.831 107.297 221.459C106.198 220.447 105.278 219.261 104.576 217.951C104.576 217.951 102.035 219.621 101.864 215.61C101.694 211.598 103.22 204.583 103.22 204.583C103.22 204.583 109.521 210.264 112.404 211.271Z" fill="white" stroke="#121212" stroke-linecap="round" stroke-linejoin="round"/>
<path d="M130.064 120.687C130.064 120.687 126.159 157.445 126.005 162.135C125.85 166.826 116.667 199.405 116.667 199.405C116.667 199.405 114.799 204.918 114.458 206.924C114.117 208.93 113.784 211.271 113.784 211.271C112.397 211.618 110.969 211.785 109.538 211.766C106.988 211.766 104.609 208.93 104.609 208.93L102.571 175.001L105.291 150.101L108.872 122.029L109.684 118.681L130.064 120.687Z" fill="#121212" stroke="#121212" stroke-linecap="round" stroke-linejoin="round"/>
<path d="M107.653 215.954C107.653 215.954 109.691 220.804 110.901 221.635C112.111 222.466 115.83 225.479 116 226.821C116.171 228.164 114.295 228.659 111.754 228.819C108.616 229.222 105.427 228.95 102.408 228.02C98.7994 226.952 95.527 224.997 92.8995 222.339C92.2256 221.5 92.2256 218.831 92.2256 218.831C92.2256 218.831 105.623 211.271 107.653 215.954Z" fill="white" stroke="#121212" stroke-linecap="round" stroke-linejoin="round"/>
<path d="M85.064 118.186C85.064 118.186 86.0871 142.582 86.9315 153.442C87.776 164.301 86.2576 168.488 86.2576 174.002C86.2576 179.516 91.1782 213.605 91.1782 213.605C91.1782 213.605 90.6666 215.115 91.1782 215.946C91.6171 216.857 91.96 217.811 92.2013 218.791C92.2013 218.791 97.2924 217.784 99.5091 217.121C101.726 216.457 106.135 214.947 106.135 214.947L107.653 215.954L107.483 208.099V152.778C107.483 150.94 111.388 124.011 111.388 124.011L85.064 118.186Z" fill="#121212" stroke="#121212" stroke-linecap="round" stroke-linejoin="round"/>
<path d="M98.1367 37.3103L81.7591 47.978L81.4911 92.8866L79.8672 118.657C79.8672 118.657 91.4704 124.251 98.762 125.433C103.185 126.154 107.643 126.642 112.119 126.896L114.685 121.582L115.497 126.624C115.497 126.624 123.617 125.825 127.376 124.099C129.317 123.283 131.134 122.207 132.776 120.902L130.9 89.6982L130.226 45.3251L115.911 36.5352L98.1367 37.3103Z" fill="#E73A2E" stroke="#121212" stroke-linecap="round" stroke-linejoin="round"/>
<path d="M94.2554 41.7529L94.7101 51.6216L100.857 53.4116L95.8793 57.2072C95.8793 57.2072 103.187 66.7962 106.354 68.8579" stroke="#121212" stroke-linecap="round" stroke-linejoin="round"/>
<path d="M121.376 41.0659L123.876 48.4654L120.003 50.9266L125.931 53.8433C125.931 53.8433 120.661 69.769 116.122 74.6914" stroke="#121212" stroke-linecap="round" stroke-linejoin="round"/>
<path d="M114.312 118.17L112.939 88.8037" stroke="#121212" stroke-linecap="round" stroke-linejoin="round"/>
<path d="M101.158 33.7065L98.1372 37.3104C98.1372 37.3104 102.376 47.1871 104.812 53.9873C107.248 60.7875 114.312 70.3366 114.312 70.3366C114.312 70.3366 118.088 54.0912 118.088 50.0558C118.088 46.0204 117.438 38.4851 117.438 38.4851L115.814 35.7202L101.158 33.7065Z" fill="white" stroke="#121212" stroke-linecap="round" stroke-linejoin="round"/>
<path d="M114.32 70.3367C114.32 70.3367 115.376 65.7819 116.374 60.8995L113.89 53.9875L116.155 46.7957L110.869 40.6348L107.849 46.8996L111.835 54.3311L109.221 62.6735C111.779 66.8767 114.32 70.3367 114.32 70.3367Z" fill="#121212" stroke="#121212" stroke-linecap="round" stroke-linejoin="round"/>
<path d="M115.83 35.7202L101.158 33.7065L98.1372 37.3104C98.1372 37.3104 101.864 46.0604 104.365 52.7567L111.73 44.3184L118.063 50.8069C118.063 50.5273 118.063 50.2716 118.063 50.0558C118.063 46.0604 117.414 38.4851 117.414 38.4851L115.83 35.7202Z" fill="white" stroke="#121212" stroke-linecap="round" stroke-linejoin="round"/>
<path d="M102.018 25.8433C102.018 25.8433 101.158 33.6903 101.158 33.7062C101.068 34.5053 101.97 35.8718 102.319 36.575C104.162 40.2667 108.271 42.3124 111.73 44.3181L114.977 39.9711L115.838 35.7199C113.037 34.8296 110.41 33.4787 108.068 31.7245C105.911 29.909 103.889 27.9435 102.018 25.8433Z" fill="white" stroke="#121212" stroke-linecap="round" stroke-linejoin="round"/>
<path d="M101.921 2.51027C100.745 2.84932 99.6866 3.50203 98.864 4.39618C98.0414 5.29033 97.4862 6.39103 97.2599 7.57646C96.5292 11.6758 99.0869 21.1609 99.7446 22.6392C100.402 24.1175 101.84 27.0421 101.84 27.0421C101.84 27.0421 106.711 35.888 111.729 37.4302C116.747 38.9725 123.666 31.6369 124.234 28.1848C124.802 24.7328 124.478 17.7967 125.216 15.799C125.955 13.8013 125.46 8.79906 124.234 5.98629C123.008 3.17351 116.39 1 111.405 1C106.419 1 102.416 2.18264 101.921 2.51027Z" fill="white" stroke="#121212" stroke-linecap="round" stroke-linejoin="round"/>
<path d="M113.743 1.22387C113.913 1.23284 114.084 1.23284 114.254 1.22387C113.3 1.08944 112.336 1.02003 111.372 1.01611C106.386 1.01611 102.383 2.21473 101.888 2.54235C100.712 2.88141 99.6537 3.53413 98.8312 4.42828C98.0086 5.32242 97.4534 6.42313 97.2271 7.60856C96.7643 10.2216 97.5844 15.7752 98.4208 19.8345L99.2733 20.2341C99.2733 20.2341 102.131 20.8813 102.383 19.7546C102.635 18.6279 102.132 15.3277 103.853 14.0412C105.574 12.7547 109.683 12.1873 108.871 10.0697C108.059 7.95216 105.761 6.52979 105.761 4.76382C105.761 2.99784 108.619 1.22387 113.743 1.22387Z" fill="#121212" stroke="#121212" stroke-linecap="round" stroke-linejoin="round"/>
<path d="M114.312 18.9716C114.312 19.6828 113.93 20.2581 113.451 20.2581C112.972 20.2581 112.639 19.6828 112.639 18.9716C112.639 18.2604 113.021 17.6851 113.451 17.6851C113.881 17.6851 114.312 18.2604 114.312 18.9716Z" fill="#121212"/>
<path d="M123.738 19.786C123.738 20.4972 123.348 21.0726 122.877 21.0726C122.406 21.0726 122.017 20.4972 122.017 19.786C122.017 19.0749 122.398 18.4995 122.877 18.4995C123.356 18.4995 123.738 19.0749 123.738 19.786Z" fill="#121212"/>
<path d="M121.359 16.2705L119.857 19.2271L121.132 26.1632H117.551L116.975 29.4554C115.192 29.3252 113.459 28.8212 111.892 27.9771C110.438 27.1623 109.269 25.9338 108.538 24.4531" stroke="#121212" stroke-linecap="round" stroke-linejoin="round"/>
<path d="M109.464 25.8198C109.464 25.8198 109.578 30.023 110.844 31.2776C112.111 32.5321 111.892 27.9773 111.892 27.9773C110.933 27.4401 110.104 26.7039 109.464 25.8198Z" fill="#121212" stroke="#121212" stroke-linecap="round" stroke-linejoin="round"/>
<path d="M109.943 14.073C109.943 14.073 112.761 12.9303 114.921 13.7454" stroke="#121212" stroke-linecap="round" stroke-linejoin="round"/>
<path d="M122.212 14.4007C122.212 14.4007 124.486 14.2169 125.217 15.7831" stroke="#121212" stroke-linecap="round" stroke-linejoin="round"/>
<path d="M106.955 16.5261L106.793 20.1139C106.598 20.6573 111.551 22.8948 116.163 21.0089L116.658 16.4382C116.658 16.4382 110.438 15.2156 106.955 16.5261Z" stroke="#121212" stroke-linecap="round" stroke-linejoin="round"/>
<path d="M116.658 16.4385L120.807 17.1736C122.959 17.2028 125.1 17.4709 127.19 17.9727L126.857 22.056C124.828 22.722 122.627 22.6655 120.637 21.8962" stroke="#121212" stroke-linecap="round" stroke-linejoin="round"/>
<path d="M116.496 18.58C116.496 18.58 118.753 18.1086 119.858 19.2433" stroke="#121212" stroke-linecap="round" stroke-linejoin="round"/>
<path d="M106.955 16.5264C106.955 16.5264 98.7457 16.9339 98.9974 17.1736" stroke="#121212" stroke-linecap="round" stroke-linejoin="round"/>
<path d="M96.6914 79.1025L99.3222 77.1447C99.3222 77.1447 101.092 73.437 101.596 73.0215C102.099 72.6059 105.355 72.2224 105.355 72.2224C105.355 72.2224 109.334 70.2646 109.545 70.8959C109.756 71.5272 109.48 71.8788 109.123 72.574C108.766 73.2692 106.419 74.4598 106.143 74.6676C105.91 74.9314 105.738 75.2424 105.639 75.5785L116.195 74.6676C116.195 74.6676 122.228 74.4598 122.691 75.2988C123.154 76.1379 120.986 77.0488 120.986 77.0488L118.428 79.7018C117.651 81.1292 116.749 82.4874 115.732 83.7612C114.523 85.0876 109.123 86.4141 107.491 86.5579C105.859 86.7018 97.6171 86.2783 97.6171 86.2783L96.6914 79.1025Z" fill="white" stroke="#121212" stroke-linecap="round" stroke-linejoin="round"/>
<path d="M120.881 77.0732C119.719 77.0306 118.556 77.0546 117.397 77.1451C116.764 77.2809 110.154 78.5435 110.154 78.5435" stroke="#121212" stroke-linecap="round" stroke-linejoin="round"/>
<path d="M118.322 79.7256L115.903 80.4927L110.86 81.6114" stroke="#121212" stroke-linecap="round" stroke-linejoin="round"/>
<path d="M111.721 83.9927C111.721 83.9927 115.692 82.874 116.902 81.8911" stroke="#121212" stroke-linecap="round" stroke-linejoin="round"/>
<path d="M84.8692 47.7148C84.8692 47.7148 78.0161 49.1772 77.2041 50.5436C76.3921 51.91 68.8326 91.7284 69.0843 94.1176C69.336 96.5069 71.9181 96.379 72.454 96.379C72.9899 96.379 93.6467 90.5298 93.6467 90.5298L92.7048 78.4396L85.8192 79.1108L89.603 64.7273" fill="#E73A2E"/>
<path d="M84.8692 47.7148C84.8692 47.7148 78.0161 49.1772 77.2041 50.5436C76.3921 51.91 68.8326 91.7284 69.0843 94.1176C69.336 96.5069 71.9181 96.379 72.454 96.379C72.9899 96.379 93.6467 90.5298 93.6467 90.5298L92.7048 78.4396L85.8192 79.1108L89.603 64.7273" stroke="#121212" stroke-linecap="round" stroke-linejoin="round"/>
<path d="M84.1871 78.6633L76.8955 77.7363" stroke="#121212" stroke-linecap="round" stroke-linejoin="round"/>
<path d="M92.6963 78.3996L97.5519 77.7363L97.9336 88.1164L93.5326 89.1632L92.6963 78.3996Z" fill="white" stroke="#121212" stroke-linecap="round" stroke-linejoin="round"/>
<path d="M152.434 45.4054L154.163 41.7695L161.43 45.8928L159.953 49.1611L152.434 45.4054Z" fill="white" stroke="#121212" stroke-linecap="round" stroke-linejoin="round"/>
<path d="M154.57 41.9129C154.57 41.9129 159.555 29.5111 159.71 28.9997C159.864 28.4883 164.192 23.0785 164.752 22.4712C165.312 21.8639 167.326 19.7383 167.683 20.3935C168.041 21.0488 168.203 21.4563 167.432 22.623C166.66 23.7896 166.043 24.9004 166.043 24.9004C166.043 24.9004 164.703 27.841 164.346 28.6481C164.165 29.0261 164.01 29.4159 163.883 29.8147C165.276 29.5786 166.685 29.4424 168.097 29.4072C168.393 29.5288 168.659 29.7084 168.881 29.9351C169.103 30.1619 169.276 30.4309 169.388 30.7257C169.486 31.1812 170.2 37.0544 170.103 37.2542C169.745 37.7445 169.244 38.1154 168.666 38.317C168.001 38.4067 167.329 38.4254 166.66 38.3729C166.739 38.7539 166.729 39.1476 166.63 39.5241C166.532 39.9006 166.348 40.2502 166.092 40.5464C165.203 41.6072 164.096 42.4706 162.844 43.0795C161.87 43.4311 160.473 44.0864 160.473 44.0864L160.164 44.7976L154.57 41.9129Z" fill="white" stroke="#121212" stroke-linecap="round" stroke-linejoin="round"/>
<path d="M162.649 32.0924C163.231 32.6206 163.966 32.956 164.752 33.0513C165.473 33.2453 166.229 33.2829 166.966 33.1615C167.703 33.0401 168.405 32.7626 169.023 32.3481C170.257 31.4371 172.474 31.1814 172.831 31.549C173.188 31.9166 172.937 32.9154 172.474 33.4268C172.011 33.9382 170.363 34.5376 170.103 34.7373C169.843 34.9371 166.449 36.6631 166.449 36.6631C166.449 36.6631 167.123 39.7556 166.092 40.5626C164.889 41.4341 163.527 42.069 162.081 42.4325C161.64 42.4644 161.199 42.396 160.79 42.2327" fill="white"/>
<path d="M162.649 32.0924C163.231 32.6206 163.966 32.956 164.752 33.0513C165.473 33.2453 166.229 33.2829 166.966 33.1615C167.703 33.0401 168.405 32.7626 169.023 32.3481C170.257 31.4371 172.474 31.1814 172.831 31.549C173.188 31.9166 172.937 32.9154 172.474 33.4268C172.011 33.9382 170.363 34.5376 170.103 34.7373C169.843 34.9371 166.449 36.6631 166.449 36.6631C166.449 36.6631 167.123 39.7556 166.092 40.5626C164.889 41.4341 163.527 42.069 162.081 42.4325C161.64 42.4644 161.199 42.396 160.79 42.2327" stroke="#121212" stroke-linecap="round" stroke-linejoin="round"/>
<path d="M164.751 33.051L164.492 31.5327" stroke="#121212" stroke-linecap="round" stroke-linejoin="round"/>
<path d="M130.227 45.325L142.861 60.3318L152.938 44.4141L161.65 49.1367L149.357 81.4196C148.384 82.0993 147.228 82.4802 146.036 82.5144C144.412 82.3865 130.762 73.3009 130.762 73.3009L130.227 45.325Z" fill="#E73A2E" stroke="#121212" stroke-linecap="round" stroke-linejoin="round"/>
<path d="M101.353 19.0037C101.353 19.0037 98.5757 14.2731 96.9355 16.3427C95.2953 18.4123 98.0804 23.2228 99.0629 24.1658C100.045 25.1087 101.677 23.91 101.921 23.4785" fill="white"/>
<path d="M101.353 19.0037C101.353 19.0037 98.5757 14.2731 96.9355 16.3427C95.2953 18.4123 98.0804 23.2228 99.0629 24.1658C100.045 25.1087 101.677 23.91 101.921 23.4785" stroke="#121212" stroke-linecap="round" stroke-linejoin="round"/>
</svg>
