<svg width="173" height="178" viewBox="0 0 173 178" fill="none" xmlns="http://www.w3.org/2000/svg">
<g clip-path="url(#clip0_415_5410)">
<path d="M116.697 28.1785C116.697 28.1785 118.516 15.0281 111.524 7.66599C104.531 0.303917 74.8585 0.303915 65.9728 8.23334C57.0871 16.1628 59.8326 28.1649 59.8326 28.1649" stroke="#121212" stroke-width="2" stroke-linecap="round" stroke-linejoin="round"/>
<path d="M72.2619 5.05881C72.2619 5.05881 61.8615 11.3267 61.1447 16.8719C60.4279 22.4171 62.9367 29.4009 63.1193 29.9413C63.3019 30.4816 64.0119 34.4193 65.0871 38.7217C65.5071 40.6818 66.1069 42.5991 66.8791 44.4493C66.8791 44.4493 58.4601 49.8526 59.5353 57.5119C60.6105 65.1711 68.4954 66.11 68.3263 68.7914C68.1572 71.4728 64.9451 74.3433 66.1758 78.0987C67.4066 81.854 73.1681 85.0825 77.1105 85.9741C81.0529 86.8656 107.581 86.8724 110.624 85.2581C113.668 83.6439 117.076 79.5306 116.9 76.1332C116.724 72.7358 115.284 70.4056 115.825 69.1494C116.366 67.8931 123.169 65.7452 123.169 56.7959C123.169 47.8466 114.033 44.6384 112.599 42.835C111.165 41.0316 113.674 38.0058 114.033 28.1582C114.391 18.3105 113.674 9.36124 103.639 4.51848C93.6038 -0.324273 83.2034 -0.317518 77.8273 1.28998C72.4513 2.89748 72.6203 4.34287 72.2619 5.05881Z" fill="#121212" stroke="#121212" stroke-linecap="round" stroke-linejoin="round"/>
<path d="M113.411 85.8391C103.754 80.6113 100.231 71.6553 104.532 61.1052L91.1085 61.2943L77.6921 61.1052C78.7402 61.1052 78.9566 70.1964 78.9093 70.9326C78.4562 78.1596 74.8519 82.5565 68.8064 85.8391C64.2689 88.2908 41.9668 94.14 41.9668 94.14L57.8988 176.825H125.245L140.25 94.14C140.25 94.14 117.955 88.2773 113.411 85.8391Z" fill="white" stroke="#121212" stroke-linecap="round" stroke-linejoin="round"/>
<path d="M118.131 97.4968H61.9292V176.811H118.131V97.4968Z" fill="white" stroke="#121212" stroke-linecap="round" stroke-linejoin="round"/>
<path d="M65.6279 31.5556C65.6279 31.5556 66.5206 49.4542 70.2872 54.9994C74.0538 60.5446 83.548 70.2166 86.5978 70.7569C89.6476 71.2973 93.7929 72.1685 96.2747 70.3989C98.7565 68.6293 108.447 58.7615 109.894 50.3457C111.341 41.93 111.206 30.4546 110.077 30.6573C99.1419 32.6295 88.6671 28.3946 86.0569 21.708C85.2958 19.7515 84.0351 18.0282 82.4003 16.7093C80.7655 15.3905 78.8135 14.5221 76.7384 14.1906C76.7384 14.1906 73.6954 30.8329 65.6279 31.5556Z" fill="white" stroke="#121212" stroke-linecap="round" stroke-linejoin="round"/>
<path d="M86.7471 50.7577C86.7471 50.7577 89.0733 52.547 91.4063 52.1892C93.7393 51.8313 94.1112 50.5754 94.1112 50.5754" stroke="#121212" stroke-linecap="round" stroke-linejoin="round"/>
<path d="M83.9878 57.012C86.043 58.1982 88.3872 58.7927 90.7602 58.7295C93.1332 58.6664 95.4423 57.948 97.4313 56.6542" stroke="#121212" stroke-linecap="round" stroke-linejoin="round"/>
<path d="M71.3628 35.2154C71.3628 35.2154 75.4878 30.2054 83.731 33.6085" stroke="#121212" stroke-width="2" stroke-linecap="round" stroke-linejoin="round"/>
<path d="M94.4287 34.3108C94.4287 34.3108 99.8386 30.55 106.601 35.2021" stroke="#121212" stroke-width="2" stroke-linecap="round" stroke-linejoin="round"/>
<path d="M140.25 94.1265C140.25 94.1265 171.728 165.005 171.492 168.314C171.255 171.624 150.86 175.899 148.96 174.238C147.06 172.576 131.412 140.366 131.412 140.366L140.25 94.1265Z" fill="#E73A2E" stroke="#121212" stroke-linecap="round" stroke-linejoin="round"/>
<path d="M142.515 106.379L133.488 132.565" stroke="#121212" stroke-linecap="round" stroke-linejoin="round"/>
<path d="M142.164 117.131L132.446 136.029" stroke="#121212" stroke-linecap="round" stroke-linejoin="round"/>
<path d="M41.9667 94.1265C41.9667 94.1265 26.3593 167.842 27.306 169.03C28.2528 170.219 30.153 174.238 36.3202 175.184C40.1195 175.753 43.996 175.523 47.7012 174.508L53.6317 154.617L41.9667 94.1265Z" fill="#E73A2E" stroke="#121212" stroke-linecap="round" stroke-linejoin="round"/>
<path d="M41.2905 110.364L48.7561 129.444" stroke="#121212" stroke-linecap="round" stroke-linejoin="round"/>
<path d="M38.8628 116.78L44.7663 124.932" stroke="#121212" stroke-linecap="round" stroke-linejoin="round"/>
<path d="M37.064 154.57C37.064 154.57 44.4214 155.022 48.3638 158.298" stroke="#121212" stroke-linecap="round" stroke-linejoin="round"/>
<path d="M80.7419 176.811L73.8713 82.2526C72.3465 83.6612 70.6437 84.8647 68.8064 85.8323C64.2689 88.284 41.9668 94.1332 41.9668 94.1332L57.8988 176.818L80.7419 176.811Z" fill="#E73A2E" stroke="#121212" stroke-linecap="round" stroke-linejoin="round"/>
<path d="M61.8076 104.953C62.7949 113.923 64.1406 125.709 65.4863 136.104C67.1733 148.471 71.4571 160.343 78.0574 170.942" stroke="#121212" stroke-linecap="round" stroke-linejoin="round"/>
<path d="M60.2793 90.6278C60.2793 90.6278 60.6242 94.0049 61.1855 99.2259" stroke="#121212" stroke-linecap="round" stroke-linejoin="round"/>
<path d="M109.928 83.5696L98.7432 176.811H125.245L140.25 94.1264C140.25 94.1264 117.935 88.2772 113.411 85.8255C112.192 85.1668 111.027 84.4125 109.928 83.5696Z" fill="#E73A2E" stroke="#121212" stroke-linecap="round" stroke-linejoin="round"/>
<path d="M121.14 100.583C120.139 109.81 118.556 123.912 116.981 136.104C115.284 148.474 110.988 160.346 104.376 170.942" stroke="#121212" stroke-linecap="round" stroke-linejoin="round"/>
<path d="M122.161 90.6278C122.161 90.6278 121.931 92.9107 121.532 96.6525" stroke="#121212" stroke-linecap="round" stroke-linejoin="round"/>
<path d="M166.813 165.059C166.813 165.059 166.556 162.391 162.62 158.305C158.684 154.219 149.772 153.617 147.378 155.265C144.984 156.913 112.849 167.058 112.849 167.058L111.754 176.514C111.754 176.514 165.541 178.473 167.698 177.19C169.856 175.906 173.413 171.989 172.527 169.321C171.899 167.604 170.902 166.045 169.605 164.755" fill="#E73A2E"/>
<path d="M166.813 165.059C166.813 165.059 166.556 162.391 162.62 158.305C158.684 154.219 149.772 153.617 147.378 155.265C144.984 156.913 112.849 167.058 112.849 167.058L111.754 176.514C111.754 176.514 165.541 178.473 167.698 177.19C169.856 175.906 173.413 171.989 172.527 169.321C171.899 167.604 170.902 166.045 169.605 164.755" stroke="#121212" stroke-linecap="round" stroke-linejoin="round"/>
<path d="M115.73 168.733C114.838 167.592 107.223 160.365 107.223 160.365L105.587 162.519L101.908 158.224L100.853 159.298L94.7671 159.777L94.5643 159.73V159.797L92.3868 159.966L95.4434 166.045L92.6505 165.917C92.6505 165.917 88.0792 165.667 85.1579 164.269C82.2366 162.871 79.694 161.223 78.8081 161.101C77.9223 160.979 77.1852 163.512 79.2138 166.45C81.2425 169.388 88.3768 169.53 88.3768 169.53C88.3768 169.53 89.7968 171.894 94.8753 173.799C96.3712 174.354 97.9661 174.594 99.5594 174.504C101.153 174.413 102.71 173.994 104.133 173.272C105.384 174.286 106.787 175.095 108.292 175.67C112.593 177.102 115.054 176.865 116.853 174.582C118.652 172.3 116.643 169.875 115.73 168.733Z" fill="white" stroke="#121212" stroke-linecap="round" stroke-linejoin="round"/>
<path d="M95.389 157.886C95.389 157.886 91.548 156.961 90.5878 157.751C89.6275 158.541 87.1119 166.315 87.3554 166.977C87.5988 167.639 89.3841 168.031 90.2293 166.977C90.6283 166.477 91.8388 164.012 92.7855 162.594C93.2664 161.794 93.8898 161.089 94.6248 160.513L95.389 157.886Z" fill="white" stroke="#121212" stroke-linecap="round" stroke-linejoin="round"/>
<path d="M97.6613 156.684C97.6613 156.684 95.5042 155.799 94.74 157.447C93.9759 159.095 92.5828 169.605 93.347 170.28C94.1111 170.955 94.997 171.55 95.5042 169.773C96.0113 167.997 97.9183 160.993 98.5539 159.115C99.1896 157.238 98.9327 156.684 97.6613 156.684Z" fill="white" stroke="#121212" stroke-linecap="round" stroke-linejoin="round"/>
<path d="M99.1284 157.69C99.1284 157.69 97.1741 170.787 98.1546 171.367C99.1352 171.948 100.041 170.8 100.589 169.76C101.137 168.72 103.7 160.588 103.592 158.852C103.483 157.116 100.765 156.299 99.1284 157.69Z" fill="white" stroke="#121212" stroke-linecap="round" stroke-linejoin="round"/>
<path d="M106.486 159.223C106.486 159.223 104.707 158.967 103.943 160.108C103.179 161.25 100.643 171.023 101.657 171.651C102.672 172.279 106.614 164.296 107.25 162.519C107.886 160.743 107.757 159.858 106.486 159.223Z" fill="white" stroke="#121212" stroke-linecap="round" stroke-linejoin="round"/>
<path d="M35.5427 153.266C36.7596 153.946 37.7478 154.971 38.3828 156.211C39.4039 158.237 43.3667 163.114 43.3667 163.114C43.3667 163.114 47.3362 163.681 47.7892 163.458C48.2423 163.235 47.113 170.928 47.113 170.928C47.113 170.928 43.9347 173.198 40.9863 173.421C38.0379 173.643 31.35 168.693 31.35 168.693C31.35 168.693 27.9689 169.713 26.4744 169.145C24.98 168.578 20.8076 163.938 20.8076 163.938L32.3711 157.028L35.5427 153.266Z" fill="white" stroke="#121212" stroke-linecap="round" stroke-linejoin="round"/>
<path d="M47.2213 161.641C47.2213 161.641 44.7328 172.853 45.524 173.535C45.8243 173.776 46.1788 173.94 46.5569 174.013C46.935 174.086 47.3252 174.066 47.6936 173.954C48.062 173.842 48.3976 173.642 48.6712 173.372C48.9448 173.101 49.1481 172.768 49.2636 172.401C50.1697 170.253 52.2119 165.154 51.8738 163.566C51.5357 161.979 49.0404 160.736 47.2213 161.641Z" fill="white" stroke="#121212" stroke-linecap="round" stroke-linejoin="round"/>
<path d="M23.188 161.189C23.188 161.189 19.3335 161.304 18.5355 163.006C17.7376 164.708 14.5728 168.895 15.479 169.456C16.3851 170.017 18.4273 167.193 19.2185 166.079C20.0097 164.964 22.8499 164.053 22.8499 164.053L23.188 161.189Z" fill="white" stroke="#121212" stroke-linecap="round" stroke-linejoin="round"/>
<path d="M27.144 158.109C27.144 158.109 23.1745 158.899 22.4104 160.709C21.6462 162.519 20.0301 169.091 20.26 170.901C20.4899 172.711 21.2811 172.826 22.0723 171.469C22.8635 170.111 24.9057 163.884 25.0206 163.539C25.1356 163.195 26.2717 160.601 26.2717 160.601L27.144 158.109Z" fill="white" stroke="#121212" stroke-linecap="round" stroke-linejoin="round"/>
<path d="M30.7818 155.407C30.7818 155.407 26.8123 155.752 26.2511 157.562C25.6898 159.372 25.6831 170.699 26.3593 171.489C27.0355 172.279 28.5165 171.719 28.8546 170.584C29.1927 169.449 29.6525 162.317 29.7607 161.864C30.1662 160.942 30.6176 160.04 31.1132 159.163L30.7818 155.407Z" fill="white" stroke="#121212" stroke-linecap="round" stroke-linejoin="round"/>
<path d="M36.2256 156.083C36.3405 156.535 34.6365 162.31 34.6365 162.31C34.6365 162.31 35.0895 166.727 35.0895 168.314C35.0895 169.902 34.0684 170.577 33.0608 170.341C32.0532 170.104 31.2418 165.018 30.9037 163.89C30.5655 162.763 30.6737 156.751 30.7887 155.394C30.9037 154.036 35.5223 153.246 35.5223 153.246C35.8426 153.296 36.1452 153.426 36.4026 153.623C36.6601 153.82 36.8642 154.078 36.9965 154.374" fill="white"/>
<path d="M36.2256 156.083C36.3405 156.535 34.6365 162.31 34.6365 162.31C34.6365 162.31 35.0895 166.727 35.0895 168.314C35.0895 169.902 34.0684 170.577 33.0608 170.341C32.0532 170.104 31.2418 165.018 30.9037 163.89C30.5655 162.763 30.6737 156.751 30.7887 155.394C30.9037 154.036 35.5223 153.246 35.5223 153.246C35.8426 153.296 36.1452 153.426 36.4026 153.623C36.6601 153.82 36.8642 154.078 36.9965 154.374" stroke="#121212" stroke-linecap="round" stroke-linejoin="round"/>
<path d="M114.689 46.9822C114.689 46.9822 114.357 56.0193 108.603 66.6639C107.084 69.536 104.937 72.0293 102.32 73.9584" stroke="#7D7D7D" stroke-width="3" stroke-linecap="round" stroke-linejoin="round"/>
<path d="M97.3568 78.6593C96.8809 78.6608 96.4195 78.495 96.0535 78.1911C95.6875 77.8872 95.4402 77.4644 95.3547 76.9967C95.2693 76.529 95.3512 76.0462 95.5862 75.6328C95.8211 75.2194 96.1942 74.9016 96.64 74.7351C98.2353 74.1268 99.7447 73.314 101.13 72.3171C101.345 72.1483 101.592 72.0246 101.856 71.9535C102.12 71.8824 102.396 71.8653 102.666 71.9032C102.937 71.9412 103.197 72.0334 103.431 72.1744C103.666 72.3153 103.869 72.5021 104.029 72.7235C104.189 72.9448 104.303 73.1962 104.363 73.4626C104.423 73.7289 104.429 74.0047 104.38 74.2733C104.331 74.542 104.228 74.798 104.077 75.0259C103.927 75.2538 103.732 75.4489 103.504 75.5996C101.838 76.8086 100.018 77.792 98.0939 78.5242C97.8584 78.6135 97.6087 78.6593 97.3568 78.6593Z" fill="#E73A2E" stroke="#121212" stroke-linecap="round" stroke-linejoin="round"/>
<path d="M121.816 39.1067C121.593 45.0302 118.949 49.7379 115.906 49.6298C108.832 49.3596 110.584 44.6182 110.807 38.6947C111.03 32.7713 110.293 27.9353 116.71 28.1785C119.74 28.2933 122.019 33.1563 121.816 39.1067Z" fill="#E73A2E" stroke="#121212" stroke-linecap="round" stroke-linejoin="round"/>
<path d="M114.804 28.2866C110.435 29.0363 110.99 33.4333 110.794 38.6948C110.604 43.8483 109.252 48.1034 113.559 49.2989L114.804 28.2866Z" fill="#737373" stroke="#121212" stroke-linecap="round" stroke-linejoin="round"/>
<path d="M55.3968 39.3837C55.9716 45.2801 58.8861 49.8257 61.9156 49.515C68.962 48.8396 66.9265 44.1994 66.3517 38.303C65.7769 32.4066 66.23 27.5301 59.8329 28.1717C56.8101 28.4622 54.822 33.4805 55.3968 39.3837Z" fill="#E73A2E" stroke="#121212" stroke-linecap="round" stroke-linejoin="round"/>
<path d="M64.1268 49.103C68.4817 47.6846 66.8317 43.4902 66.3516 38.2963C65.8309 32.9334 66.1555 28.4284 61.4219 28.111L64.1268 49.103Z" fill="#737373" stroke="#121212" stroke-linecap="round" stroke-linejoin="round"/>
<path d="M80.9244 39.2351C80.9244 40.6535 79.9777 41.7949 78.801 41.7949C77.6244 41.7949 76.6709 40.6535 76.6709 39.2351C76.6709 37.8167 77.6244 36.682 78.801 36.682C79.9777 36.682 80.9244 37.837 80.9244 39.2351Z" fill="#121212"/>
<path d="M100.589 39.2351C100.589 40.6535 99.636 41.7949 98.4593 41.7949C97.2827 41.7949 96.3359 40.6535 96.3359 39.2351C96.3359 37.8167 97.2827 36.682 98.4593 36.682C99.636 36.682 100.589 37.837 100.589 39.2351Z" fill="#121212"/>
<path d="M105.377 167.99C105.377 167.99 105.56 172.36 109.387 174.549" stroke="#121212" stroke-linecap="round" stroke-linejoin="round"/>
<path d="M103.294 174.245H9.04097L0.337891 114.511H94.5909L103.294 174.245Z" fill="#121212" stroke="#121212" stroke-linecap="round" stroke-linejoin="round"/>
<path d="M9.04772 174.245H103.294L98.6956 142.676C83.5413 141.392 57.8107 141.473 44.9353 154.536C34.2103 165.41 19.4143 169.557 8.58789 171.111L9.04772 174.245Z" fill="#121212" stroke="#121212" stroke-linecap="round" stroke-linejoin="round"/>
<path d="M139.52 174.245H9.04102V177.155H139.52V174.245Z" fill="#737373" stroke="#121212" stroke-linecap="round" stroke-linejoin="round"/>
</g>
<defs>
<clipPath id="clip0_415_5410">
<rect width="173" height="178" fill="white"/>
</clipPath>
</defs>
</svg>
