<svg width="150" height="229" fill="none" xmlns="http://www.w3.org/2000/svg"><g clip-path="url(#a)"><path d="M34.971 138.993c2.138-10.904-3.046-21.092-11.579-22.755-8.533-1.663-17.183 5.829-19.32 16.733-2.138 10.904 3.046 21.091 11.578 22.754 8.533 1.663 17.183-5.828 19.321-16.732Z" fill="#E73A2E" stroke="#121212" stroke-miterlimit="10"/><path d="M94.337 116.994s12.542-19.307 27.154-16.183c9.731 2.083 4.013 20.544 4.013 20.544" fill="#E73A2E"/><path d="M94.337 116.994s12.542-19.307 27.154-16.183c9.731 2.083 4.013 20.544 4.013 20.544" stroke="#121212" stroke-miterlimit="10"/><path d="M122.218 123.164h.036l.898-.231s5.59-16.932-2.553-16.719c-6.872.177-16.121 15.994-18.833 20.915 5.296-3.673 12.663-5.317 20.452-3.965Z" fill="#121212" stroke="#121212" stroke-miterlimit="10"/><path d="m61.686 205.6-3.427 15.08a10.294 10.294 0 0 1-3.633 5.749 10.346 10.346 0 0 1-6.434 2.242 10.351 10.351 0 0 1-6.427-2.245 10.3 10.3 0 0 1-3.628-5.746l-6.03-26.536" fill="#121212"/><path d="m61.686 205.6-3.427 15.08a10.294 10.294 0 0 1-3.633 5.749 10.346 10.346 0 0 1-6.434 2.242 10.351 10.351 0 0 1-6.427-2.245 10.3 10.3 0 0 1-3.628-5.746l-6.03-26.536" stroke="#121212" stroke-miterlimit="10"/><path d="m114.068 205.6-3.439 15.153a10.228 10.228 0 0 1-3.617 5.7 10.281 10.281 0 0 1-6.389 2.218 10.27 10.27 0 0 1-6.45-2.278 10.216 10.216 0 0 1-3.575-5.816l-3.439-16.049" fill="#121212"/><path d="m114.068 205.6-3.439 15.153a10.228 10.228 0 0 1-3.617 5.7 10.281 10.281 0 0 1-6.389 2.218 10.27 10.27 0 0 1-6.45-2.278 10.216 10.216 0 0 1-3.575-5.816l-3.439-16.049" stroke="#121212" stroke-miterlimit="10"/><path d="M144.282 160.511c0 18.412-9.774 34.911-25.198 46.015-12.584 9.062-28.925 14.532-46.787 14.532-39.762 0-71.991-27.11-71.991-60.547s32.23-60.552 71.991-60.552c39.762 0 71.985 27.109 71.985 60.552Z" fill="#E73A2E" stroke="#121212" stroke-miterlimit="10"/><path d="M131.051 189.959a61.657 61.657 0 0 1-14.307 14.265 70.294 70.294 0 0 1-12.187 7.016" stroke="#121212" stroke-miterlimit="10"/><path d="M138.851 173.777a51.166 51.166 0 0 1-3.702 9.428l3.702-9.428Z" fill="#fff"/><path d="M138.851 173.777a51.166 51.166 0 0 1-3.702 9.428M14.637 129.565a60.49 60.49 0 0 1 7.709-8.338M11.21 186.403a49.581 49.581 0 0 1-7.307-25.901 49.575 49.575 0 0 1 7.306-25.9M104.557 211.24a78.562 78.562 0 0 1-32.26 6.791 77.722 77.722 0 0 1-36.329-8.783M105.26 127.226c0 3.539-1.546 6.401-3.446 6.401-1.716 0-3.14-2.339-3.396-5.402M123.048 125.704c0 2.619-1.142 4.738-2.547 4.738-1.277 0-2.334-1.736-2.523-4.008" stroke="#121212" stroke-miterlimit="10"/><path d="M87.129 104.801a31.425 31.425 0 0 0-3.482 1.431c-.69.335-1.222.652-1.674.914a67.642 67.642 0 0 0-2.749-.274 76.618 76.618 0 0 0-6.927-.299 79.488 79.488 0 0 0-29.438 5.561 71.146 71.146 0 0 0-4.588 2.01 37.816 37.816 0 0 1 8.626-6.621 79.945 79.945 0 0 1 25.4-4.08c4.975-.003 9.94.451 14.832 1.358Z" fill="#fff" stroke="#121212" stroke-miterlimit="10"/><path d="m83.647 106.25-4.423.609a76.62 76.62 0 0 0-6.927-.298 79.468 79.468 0 0 0-29.438 5.561 39.683 39.683 0 0 1 4.038-2.613 80.121 80.121 0 0 1 25.4-4.087c3.798.012 7.59.289 11.35.828ZM121.643 170.719c4.204 0 7.612-7.995 7.612-17.857 0-9.863-3.408-17.858-7.612-17.858-4.203 0-7.611 7.995-7.611 17.858 0 9.862 3.408 17.857 7.611 17.857Z" fill="#121212" stroke="#121212" stroke-miterlimit="10"/><path d="M126.884 165.079c9.892 0 17.911-7.995 17.911-17.857 0-9.863-8.019-17.858-17.911-17.858-9.891 0-17.91 7.995-17.91 17.858 0 9.862 8.019 17.857 17.91 17.857Z" fill="#E73A2E" stroke="#121212" stroke-miterlimit="10"/><path d="M131.784 165.079c9.892 0 17.911-7.995 17.911-17.857 0-9.863-8.019-17.858-17.911-17.858-9.892 0-17.911 7.995-17.911 17.858 0 9.862 8.019 17.857 17.911 17.857Z" fill="#E73A2E" stroke="#121212" stroke-miterlimit="10"/><path d="M126.616 153.696c2.081 0 3.769-2.776 3.769-6.2 0-3.425-1.688-6.201-3.769-6.201-2.082 0-3.769 2.776-3.769 6.201 0 3.424 1.687 6.2 3.769 6.2ZM140.11 152.728c2.082 0 3.769-2.776 3.769-6.201 0-3.424-1.687-6.2-3.769-6.2s-3.769 2.776-3.769 6.2c0 3.425 1.687 6.201 3.769 6.201Z" fill="#121212" stroke="#121212" stroke-miterlimit="10"/><path d="m44.313 205.6-3.427 15.08a10.294 10.294 0 0 1-3.638 5.753 10.346 10.346 0 0 1-6.442 2.238 10.34 10.34 0 0 1-6.442-2.248 10.288 10.288 0 0 1-3.625-5.767l-6.035-26.537" fill="#E73A2E"/><path d="m44.313 205.6-3.427 15.08a10.294 10.294 0 0 1-3.638 5.753 10.346 10.346 0 0 1-6.442 2.238 10.34 10.34 0 0 1-6.442-2.248 10.288 10.288 0 0 1-3.625-5.767l-6.035-26.537" stroke="#121212" stroke-miterlimit="10"/><path d="m95.626 205.6-3.44 15.153a10.216 10.216 0 0 1-3.612 5.701 10.27 10.27 0 0 1-6.387 2.217 10.272 10.272 0 0 1-6.453-2.276 10.218 10.218 0 0 1-3.578-5.818l-3.433-16.049" fill="#E73A2E"/><path d="m95.626 205.6-3.44 15.153a10.216 10.216 0 0 1-3.612 5.701 10.27 10.27 0 0 1-6.387 2.217 10.272 10.272 0 0 1-6.453-2.276 10.218 10.218 0 0 1-3.578-5.818l-3.433-16.049" stroke="#121212" stroke-miterlimit="10"/><path d="M65.626 126.867s1.833-22.401 17.214-28.723c10.257-4.215 14.435 13.46 14.435 13.46" fill="#E73A2E"/><path d="M65.626 126.867s1.833-22.401 17.214-28.723c10.257-4.215 14.435 13.46 14.435 13.46" stroke="#121212" stroke-miterlimit="10"/><path d="M95.143 114.948h.043l.727-.713s-3.506-16.408-11.075-11.377c-6.39 4.263-6.909 21.981-6.915 27.408 3.085-6.03 9.175-11.706 17.22-15.318Z" fill="#121212" stroke="#121212" stroke-miterlimit="10"/><path d="M62.859 102.425c9.23 0 16.714-7.46 16.714-16.663 0-9.204-7.483-16.664-16.714-16.664-9.23 0-16.714 7.46-16.714 16.663 0 9.204 7.483 16.664 16.714 16.664Z" fill="#fff" stroke="#121212" stroke-linejoin="round"/><path d="M60.892 102.425c9.23 0 16.713-7.46 16.713-16.663 0-9.204-7.483-16.664-16.713-16.664s-16.714 7.46-16.714 16.663c0 9.204 7.483 16.664 16.714 16.664Z" fill="#fff" stroke="#121212" stroke-linejoin="round"/><path d="M60.892 99.155c7.419 0 13.433-5.997 13.433-13.394 0-7.396-6.014-13.393-13.433-13.393S47.46 78.365 47.46 85.761c0 7.397 6.014 13.394 13.433 13.394Z" fill="#fff" stroke="#121212" stroke-linejoin="round"/><path d="M48.62 85.762a13.378 13.378 0 0 1 3.717-9.266 13.457 13.457 0 0 1 9.11-4.134h-.58a13.46 13.46 0 0 0-9.502 3.925 13.379 13.379 0 0 0-3.937 9.475c0 3.553 1.416 6.962 3.937 9.474a13.46 13.46 0 0 0 9.502 3.925h.58a13.457 13.457 0 0 1-9.11-4.134 13.378 13.378 0 0 1-3.718-9.265Z" fill="#fff" stroke="#121212" stroke-linejoin="round"/><path d="M73.347 72.916h-1.276M74.972 74.42h-.928M77.062 76.729h-1.045M78.222 79.622H76.83M79.267 82.747H77.99M79.267 89.343h-1.393M73.812 97.212h1.16M71.839 98.716h1.277M69.75 100.336h1.276M71.143 71.296h-1.974" stroke="#121212" stroke-linejoin="round"/><path d="M60.208 81.2c0-1.219.483-1.657 1.325-1.657.843 0 1.326.457 1.326 1.657v.688h2.505v-.524c0-2.284-.966-3.727-2.84-4.111v-1.249h-2.17v1.249c-1.832.408-2.797 1.827-2.797 4.111 0 4.8 5.18 4.97 5.18 8.43 0 1.218-.532 1.632-1.375 1.632s-1.368-.433-1.368-1.633v-1.321h-2.51v1.15c0 2.285.965 3.747 2.87 4.13v1.219h2.17v-1.219c1.874-.383 2.864-1.827 2.864-4.13 0-4.798-5.18-4.963-5.18-8.422Z" fill="#121212"/><path d="M105.663 58.526c4.809-7.856 2.321-18.11-5.558-22.906-7.879-4.795-18.165-2.314-22.974 5.542-4.809 7.855-2.32 18.11 5.558 22.905 7.879 4.795 18.165 2.314 22.974-5.541Z" fill="#fff" stroke="#121212" stroke-linejoin="round"/><path d="M95.887 65.222c8.516-3.552 12.532-13.314 8.969-21.804-3.562-8.49-13.353-12.494-21.868-8.942-8.516 3.551-12.531 13.313-8.97 21.803 3.563 8.49 13.354 12.494 21.87 8.943Z" fill="#fff" stroke="#121212" stroke-linejoin="round"/><path d="M101.884 54.92c2.802-6.85-.495-14.666-7.364-17.46-6.87-2.794-14.71.494-17.512 7.343-2.802 6.849.495 14.666 7.365 17.46 6.87 2.793 14.71-.494 17.511-7.343Z" fill="#fff" stroke="#121212" stroke-linejoin="round"/><path d="M77.16 49.851a13.377 13.377 0 0 1 3.729-9.275 13.457 13.457 0 0 1 9.13-4.124h-.58a13.473 13.473 0 0 0-9.504 3.925 13.364 13.364 0 0 0 0 18.95 13.473 13.473 0 0 0 9.503 3.925h.58a13.457 13.457 0 0 1-9.13-4.125 13.378 13.378 0 0 1-3.728-9.276Z" fill="#fff" stroke="#121212" stroke-linejoin="round"/><path d="M101.888 37h-1.277M103.513 38.505h-.929M105.602 40.82h-1.045M106.762 43.712h-1.392M107.807 46.836h-1.277M107.807 53.433h-1.393M102.352 61.296h1.161M100.379 62.8h1.277M98.29 64.42h1.276M99.682 35.38H97.71" stroke="#121212" stroke-linejoin="round"/><path d="M93.476 46.788c1.106-.47 1.716-.201 2.046.572.33.774.092 1.395-1.02 1.858l-.61.274.97 2.302.49-.207c2.113-.89 3.054-2.333 2.693-4.209l1.155-.487-.843-1.991-1.155.487c-1.1-1.547-2.798-1.827-4.887-.969-4.44 1.864-2.584 6.7-5.779 8.034-1.111.469-1.716.146-2.04-.61-.324-.754-.134-1.424.971-1.893l1.222-.512-.971-2.302-1.07.445c-2.107.889-3.084 2.344-2.7 4.263l-1.135.481.843 1.992 1.136-.482c1.081 1.578 2.822 1.919 4.93 1.03 4.416-1.913 2.559-6.736 5.754-8.076Z" fill="#121212"/><path d="M74.95 28.75c6.527-6.508 6.527-17.06 0-23.567-6.527-6.507-17.11-6.507-23.636 0-6.527 6.508-6.527 17.059 0 23.566 6.527 6.508 17.11 6.508 23.636 0Z" fill="#fff" stroke="#121212" stroke-linejoin="round"/><path d="M67.616 32.34c8.516-3.552 12.531-13.314 8.97-21.804-3.563-8.49-13.354-12.494-21.87-8.942-8.515 3.551-12.53 13.313-8.968 21.803 3.562 8.49 13.353 12.494 21.868 8.943Z" fill="#fff" stroke="#121212" stroke-linejoin="round"/><path d="M66.342 29.326c6.847-2.85 10.08-10.694 7.221-17.52-2.858-6.825-10.725-10.049-17.571-7.199-6.846 2.85-10.08 10.694-7.221 17.52 2.858 6.825 10.725 10.049 17.571 7.199Z" fill="#fff" stroke="#121212" stroke-linejoin="round"/><path d="M48.894 16.968a13.378 13.378 0 0 1 3.718-9.266 13.457 13.457 0 0 1 9.11-4.133h-.61a13.46 13.46 0 0 0-9.503 3.924 13.38 13.38 0 0 0-3.937 9.475 13.38 13.38 0 0 0 3.937 9.475 13.46 13.46 0 0 0 9.503 3.924h.61a13.457 13.457 0 0 1-9.11-4.133 13.378 13.378 0 0 1-3.718-9.266Z" fill="#fff" stroke="#121212" stroke-linejoin="round"/><path d="M73.617 4.117H72.34M75.242 5.622h-.929M77.33 7.936h-1.044M78.49 10.83h-1.392M79.535 13.954H78.26M79.536 20.544h-1.393M74.08 28.413h1.161M72.107 29.917h1.277M70.024 31.537h1.271M71.411 2.497h-1.967" stroke="#121212" stroke-linejoin="round"/><path d="M58.326 13.765c-.654-1.005-.5-1.65.208-2.108.708-.456 1.362-.34 2.016.67l.378.579 2.102-1.358-.287-.445c-1.222-1.912-2.84-2.594-4.63-1.9l-.679-1.048-1.832 1.182.684 1.047c-1.332 1.346-1.332 3.046-.098 4.958 2.62 4.032 7.056 1.358 8.95 4.264.653 1.004.445 1.656-.263 2.113-.709.457-1.387.384-2.04-.609l-.721-1.108-2.102 1.364.611.962c1.222 1.913 2.853 2.619 4.66 1.906l.667 1.03 1.832-1.176-.665-1.03c1.362-1.339 1.392-3.105.14-5.018-2.602-4.05-7.037-1.376-8.93-4.275Z" fill="#121212"/></g><defs><clipPath id="a"><path fill="#fff" d="M0 0h150v229H0z"/></clipPath></defs></svg>