<svg width="174" height="230" fill="none" xmlns="http://www.w3.org/2000/svg"><path d="M19.78 88.476c7.455 7.335 7.211 19.465 7.211 19.465s-12.326.24-19.78-7.095C-.243 93.51.001 81.38.001 81.38s12.326-.24 19.78 7.096ZM19.78 113.599c7.455 7.336 7.211 19.466 7.211 19.466s-12.326.239-19.78-7.096c-7.454-7.336-7.21-19.49-7.21-19.49s12.326-.216 19.78 7.12ZM19.78 138.723c7.455 7.335 7.211 19.473 7.211 19.473s-12.31.224-19.78-7.103c-7.47-7.328-7.21-19.466-7.21-19.466s12.326-.24 19.78 7.096ZM59.438 151.093c7.454-7.336 7.218-19.466 7.218-19.466s-12.326-.24-19.78 7.096c-7.453 7.335-7.218 19.473-7.218 19.473s12.326.224 19.78-7.103ZM59.437 125.969c7.454-7.336 7.21-19.49 7.21-19.49s-12.325-.24-19.78 7.096c-7.453 7.335-7.218 19.465-7.218 19.465s12.334.264 19.788-7.071ZM59.438 100.886c7.454-7.336 7.218-19.466 7.218-19.466s-12.326-.24-19.78 7.096c-7.453 7.335-7.218 19.465-7.218 19.465s12.326.2 19.78-7.095Z" fill="#E73A2E"/><path d="M33.008 86.07v102.292" stroke="#121212" stroke-linecap="round" stroke-linejoin="round"/><path d="M32.61 85.288c11.458 0 20.746-9.141 20.746-20.417 0-11.276-9.288-20.416-20.746-20.416-11.457 0-20.746 9.14-20.746 20.416s9.289 20.417 20.746 20.417Z" fill="#fff" stroke="#121212" stroke-linecap="round" stroke-linejoin="round"/><path d="M39.264 81.774c9.495-3.613 14.216-14.117 10.544-23.46-3.671-9.345-14.344-13.99-23.839-10.377-9.494 3.613-14.215 14.116-10.544 23.46 3.672 9.344 14.345 13.99 23.84 10.377Z" fill="#fff" stroke="#121212" stroke-linecap="round" stroke-linejoin="round"/><path d="M32.546 80.43v-2.781a6.125 6.125 0 0 1-2.56-.479 6.039 6.039 0 0 1-2.117-1.495c-1.029-1.236-1.587-3.082-1.673-5.538l4.287-.71c.016.839.122 1.674.317 2.492.112.559.38 1.076.771 1.495a1.857 1.857 0 0 0 1.34.495c.25.027.504-.014.731-.12.228-.106.422-.272.56-.48.24-.418.36-.893.35-1.374a4.367 4.367 0 0 0-.715-2.557 10.918 10.918 0 0 0-1.957-2.077l-2.582-2.182a15.783 15.783 0 0 1-1.624-1.646 6.893 6.893 0 0 1-1.113-1.91 7.266 7.266 0 0 1-.406-2.54 5.78 5.78 0 0 1 .351-2.356 5.85 5.85 0 0 1 1.273-2.024 6.796 6.796 0 0 1 4.36-1.782v-2.66h1.462v2.66c.945.016 1.87.27 2.688.735a4.423 4.423 0 0 1 1.624 1.599c.379.66.652 1.375.812 2.117.159.735.262 1.48.308 2.23l-4.344.63a13.173 13.173 0 0 0-.187-1.957 2.826 2.826 0 0 0-.544-1.335 1.401 1.401 0 0 0-1.218-.447 1.571 1.571 0 0 0-.728.17 1.544 1.544 0 0 0-.563.485 2.37 2.37 0 0 0-.438 1.407c-.037.79.198 1.57.666 2.213.465.569.973 1.103 1.518 1.598l2.525 2.15c.669.6 1.288 1.253 1.852 1.95a9.14 9.14 0 0 1 1.372 2.317c.356.929.53 1.916.511 2.909a6.37 6.37 0 0 1-.65 2.884 5.34 5.34 0 0 1-1.883 2.11 6.286 6.286 0 0 1-2.899.959v2.813l-1.477.032Z" fill="#121212" stroke="#fff" stroke-linecap="round" stroke-linejoin="round"/><path d="m8.64 90.346 24.425 23.197M57.497 90.346l-24.432 23.197M8.64 115.149l24.425 23.198M57.497 115.149l-24.432 23.198M8.64 139.953l24.425 23.198M57.497 139.953l-24.432 23.198" stroke="#121212" stroke-linecap="round" stroke-linejoin="round"/><path d="M39.447 210.264h-13.56l-6.78-36.174h27.128l-6.788 36.174Z" fill="#121212" stroke="#121212" stroke-linecap="round" stroke-linejoin="round"/><path d="M105.672 10.836h-6.455v6.353h6.455v-6.353ZM117.17 10.836h-6.456v6.353h6.456v-6.353ZM112.404 211.271l2.891 7.016s4.587 4.682 4.059 6.353c-.527 1.67-4.758.799-5.602.495a53.639 53.639 0 0 1-6.455-3.676 13.33 13.33 0 0 1-2.721-3.508s-2.541 1.67-2.712-2.341c-.17-4.012 1.356-11.027 1.356-11.027s6.301 5.681 9.184 6.688Z" fill="#fff" stroke="#121212" stroke-linecap="round" stroke-linejoin="round"/><path d="M130.064 120.687s-3.905 36.758-4.059 41.448c-.155 4.691-9.338 37.27-9.338 37.27s-1.868 5.513-2.209 7.519c-.341 2.006-.674 4.347-.674 4.347a16.593 16.593 0 0 1-4.246.495c-2.55 0-4.929-2.836-4.929-2.836l-2.038-33.929 2.72-24.9 3.581-28.072.812-3.348 20.38 2.006Z" fill="#121212" stroke="#121212" stroke-linecap="round" stroke-linejoin="round"/><path d="M107.653 215.954s2.038 4.85 3.248 5.681c1.21.831 4.929 3.844 5.099 5.186.171 1.343-1.705 1.838-4.246 1.998a22.166 22.166 0 0 1-9.346-.799 22.241 22.241 0 0 1-9.508-5.681c-.674-.839-.674-3.508-.674-3.508s13.397-7.56 15.427-2.877Z" fill="#fff" stroke="#121212" stroke-linecap="round" stroke-linejoin="round"/><path d="M85.064 118.186s1.023 24.396 1.868 35.256c.844 10.859-.674 15.046-.674 20.56 0 5.514 4.92 39.603 4.92 39.603s-.511 1.51 0 2.341c.44.911.782 1.865 1.023 2.845 0 0 5.091-1.007 7.308-1.67 2.217-.664 6.626-2.174 6.626-2.174l1.518 1.007-.17-7.855v-55.321c0-1.838 3.905-28.767 3.905-28.767l-26.324-5.825Z" fill="#121212" stroke="#121212" stroke-linecap="round" stroke-linejoin="round"/><path d="M98.137 37.31 81.759 47.978l-.268 44.909-1.624 25.77s11.603 5.594 18.895 6.776a128.14 128.14 0 0 0 13.357 1.463l2.566-5.314.812 5.042s8.12-.799 11.879-2.525a23.012 23.012 0 0 0 5.4-3.197L130.9 89.698l-.674-44.373-14.315-8.79-17.774.775Z" fill="#E73A2E" stroke="#121212" stroke-linecap="round" stroke-linejoin="round"/><path d="m94.255 41.753.455 9.869 6.147 1.79-4.978 3.795s7.308 9.59 10.475 11.65M121.376 41.066l2.5 7.4-3.873 2.46 5.928 2.917s-5.27 15.926-9.809 20.848M114.312 118.17l-1.373-29.366" stroke="#121212" stroke-linecap="round" stroke-linejoin="round"/><path d="m101.158 33.706-3.02 3.604s4.238 9.877 6.674 16.677c2.436 6.8 9.5 16.35 9.5 16.35s3.776-16.246 3.776-20.281c0-4.036-.65-11.57-.65-11.57l-1.624-2.766-14.656-2.014Z" fill="#fff" stroke="#121212" stroke-linecap="round" stroke-linejoin="round"/><path d="M114.32 70.337s1.056-4.555 2.054-9.438l-2.484-6.912 2.265-7.191-5.286-6.161-3.02 6.265 3.986 7.431-2.614 8.342a119.329 119.329 0 0 0 5.099 7.664Z" fill="#121212" stroke="#121212" stroke-linecap="round" stroke-linejoin="round"/><path d="m115.83 35.72-14.672-2.014-3.02 3.604s3.726 8.75 6.227 15.447l7.365-8.439 6.333 6.489v-.751c0-3.996-.649-11.57-.649-11.57l-1.584-2.766Z" fill="#fff" stroke="#121212" stroke-linecap="round" stroke-linejoin="round"/><path d="M102.018 25.843s-.86 7.847-.86 7.863c-.09.8.812 2.166 1.161 2.869 1.843 3.692 5.952 5.737 9.411 7.743l3.247-4.347.861-4.251a26.196 26.196 0 0 1-7.77-3.995 58.888 58.888 0 0 1-6.05-5.882Z" fill="#fff" stroke="#121212" stroke-linecap="round" stroke-linejoin="round"/><path d="M101.921 2.51a6.66 6.66 0 0 0-3.057 1.886 6.498 6.498 0 0 0-1.604 3.18c-.73 4.1 1.827 13.585 2.485 15.063.657 1.479 2.095 4.403 2.095 4.403s4.871 8.846 9.889 10.388c5.018 1.542 11.937-5.793 12.505-9.245.568-3.452.244-10.388.982-12.386.739-1.998.244-7-.982-9.813C123.008 3.174 116.39 1 111.405 1c-4.986 0-8.989 1.183-9.484 1.51Z" fill="#fff" stroke="#121212" stroke-linecap="round" stroke-linejoin="round"/><path d="M113.743 1.224c.17.009.341.009.511 0a21.287 21.287 0 0 0-2.882-.208c-4.986 0-8.989 1.199-9.484 1.526a6.658 6.658 0 0 0-3.057 1.886 6.497 6.497 0 0 0-1.604 3.18c-.463 2.614.357 8.167 1.194 12.226l.852.4s2.858.647 3.11-.48c.252-1.126-.251-4.426 1.47-5.713 1.721-1.286 5.83-1.854 5.018-3.971-.812-2.118-3.11-3.54-3.11-5.306s2.858-3.54 7.982-3.54Z" fill="#121212" stroke="#121212" stroke-linecap="round" stroke-linejoin="round"/><path d="M114.312 18.972c0 .71-.382 1.286-.861 1.286s-.812-.575-.812-1.286c0-.712.382-1.287.812-1.287.43 0 .861.575.861 1.287ZM123.738 19.786c0 .711-.39 1.287-.861 1.287s-.86-.576-.86-1.287.381-1.287.86-1.287.861.576.861 1.287Z" fill="#121212"/><path d="m121.359 16.27-1.502 2.957 1.275 6.936h-3.581l-.576 3.292a12.664 12.664 0 0 1-5.083-1.478 8.212 8.212 0 0 1-3.354-3.524" stroke="#121212" stroke-linecap="round" stroke-linejoin="round"/><path d="M109.464 25.82s.114 4.203 1.38 5.458c1.267 1.254 1.048-3.3 1.048-3.3a7.551 7.551 0 0 1-2.428-2.158Z" fill="#121212" stroke="#121212" stroke-linecap="round" stroke-linejoin="round"/><path d="M109.943 14.073s2.818-1.143 4.978-.328M122.212 14.4s2.274-.183 3.005 1.383M106.955 16.526l-.162 3.588c-.195.543 4.758 2.78 9.37.895l.495-4.57s-6.22-1.223-9.703.087ZM116.658 16.439l4.149.735c2.152.029 4.293.297 6.383.799l-.333 4.083a9.257 9.257 0 0 1-6.22-.16" stroke="#121212" stroke-linecap="round" stroke-linejoin="round"/><path d="M116.496 18.58s2.257-.471 3.362.663M106.955 16.526s-8.21.408-7.958.648" stroke="#121212" stroke-linecap="round" stroke-linejoin="round"/><path d="m96.691 79.103 2.631-1.958s1.77-3.708 2.274-4.123c.503-.416 3.759-.8 3.759-.8s3.979-1.957 4.19-1.326c.211.631-.065.983-.422 1.678s-2.704 1.886-2.98 2.094a2.401 2.401 0 0 0-.504.91l10.556-.91s6.033-.208 6.496.63c.463.84-1.705 1.75-1.705 1.75l-2.558 2.654a27.837 27.837 0 0 1-2.696 4.06c-1.209 1.326-6.609 2.652-8.241 2.796-1.632.144-9.874-.28-9.874-.28l-.926-7.175Z" fill="#fff" stroke="#121212" stroke-linecap="round" stroke-linejoin="round"/><path d="M120.881 77.073a30.43 30.43 0 0 0-3.484.072c-.633.136-7.243 1.398-7.243 1.398M118.322 79.726l-2.419.767-5.043 1.118M111.721 83.993s3.971-1.119 5.181-2.102" stroke="#121212" stroke-linecap="round" stroke-linejoin="round"/><path d="M84.87 47.715s-6.854 1.462-7.666 2.829c-.812 1.366-8.371 41.184-8.12 43.574.252 2.389 2.834 2.261 3.37 2.261s21.193-5.85 21.193-5.85l-.942-12.09-6.886.672 3.784-14.384" fill="#E73A2E"/><path d="M84.87 47.715s-6.854 1.462-7.666 2.829c-.812 1.366-8.371 41.184-8.12 43.574.252 2.389 2.834 2.261 3.37 2.261s21.193-5.85 21.193-5.85l-.942-12.09-6.886.672 3.784-14.384M84.187 78.663l-7.291-.927" stroke="#121212" stroke-linecap="round" stroke-linejoin="round"/><path d="m92.696 78.4 4.856-.664.382 10.38-4.401 1.047-.837-10.763ZM152.434 45.405l1.729-3.636 7.267 4.124-1.477 3.268-7.519-3.756ZM154.57 41.913S159.555 29.51 159.71 29c.154-.512 4.482-5.922 5.042-6.529.56-.607 2.574-2.733 2.931-2.078.358.656.52 1.063-.251 2.23-.772 1.167-1.389 2.277-1.389 2.277s-1.34 2.941-1.697 3.748a9.086 9.086 0 0 0-.463 1.167 29.645 29.645 0 0 1 4.214-.408c.296.122.562.301.784.528.222.227.395.496.507.79.098.456.812 6.33.715 6.53-.358.49-.859.86-1.437 1.062a9.463 9.463 0 0 1-2.006.056 2.543 2.543 0 0 1-.568 2.173 9.866 9.866 0 0 1-3.248 2.534c-.974.351-2.371 1.006-2.371 1.006l-.309.712-5.594-2.885Z" fill="#fff" stroke="#121212" stroke-linecap="round" stroke-linejoin="round"/><path d="M162.649 32.092a3.811 3.811 0 0 0 2.103.96 5.246 5.246 0 0 0 4.271-.704c1.234-.91 3.451-1.167 3.808-.799.357.368.106 1.366-.357 1.878-.463.511-2.111 1.11-2.371 1.31-.26.2-3.654 1.926-3.654 1.926s.674 3.093-.357 3.9a11.699 11.699 0 0 1-4.011 1.87 2.913 2.913 0 0 1-1.291-.2" fill="#fff"/><path d="M162.649 32.092a3.811 3.811 0 0 0 2.103.96 5.246 5.246 0 0 0 4.271-.704c1.234-.91 3.451-1.167 3.808-.799.357.368.106 1.366-.357 1.878-.463.511-2.111 1.11-2.371 1.31-.26.2-3.654 1.926-3.654 1.926s.674 3.093-.357 3.9a11.699 11.699 0 0 1-4.011 1.87 2.913 2.913 0 0 1-1.291-.2M164.751 33.051l-.259-1.518" stroke="#121212" stroke-linecap="round" stroke-linejoin="round"/><path d="m130.227 45.325 12.634 15.007 10.077-15.918 8.712 4.723-12.293 32.283a6.108 6.108 0 0 1-3.321 1.094c-1.624-.127-15.274-9.213-15.274-9.213l-.535-27.976Z" fill="#E73A2E" stroke="#121212" stroke-linecap="round" stroke-linejoin="round"/><path d="M101.353 19.004s-2.777-4.73-4.417-2.661c-1.64 2.07 1.144 6.88 2.127 7.823.982.943 2.614-.256 2.858-.688" fill="#fff"/><path d="M101.353 19.004s-2.777-4.73-4.417-2.661c-1.64 2.07 1.144 6.88 2.127 7.823.982.943 2.614-.256 2.858-.688" stroke="#121212" stroke-linecap="round" stroke-linejoin="round"/></svg>