<svg width="202" height="202" fill="none" xmlns="http://www.w3.org/2000/svg"><rect x=".5" y=".5" width="201" height="201" rx="4.5" fill="#FAFAFA" stroke="#121212"/><path d="M101 59.627h20.687c4.867 0 7.301 1.216 9.126 1.825 2.434 1.217 4.259 1.825 6.085 3.65 1.825 1.826 3.042 3.651 3.65 6.085.609 1.825 1.217 4.259 1.825 9.126v41.374c0 4.867-1.216 7.301-1.825 9.126-1.217 2.434-1.825 4.259-3.65 6.085-1.826 1.825-3.651 3.042-6.085 3.65-1.825.609-4.259 1.217-9.126 1.825H80.313c-4.867 0-7.3-1.216-9.126-1.825-2.434-1.217-4.26-1.825-6.085-3.65-1.825-1.826-3.042-3.651-3.65-6.085-.609-1.825-1.217-4.259-1.825-9.126V80.313c0-4.867 1.216-7.3 1.825-9.126 1.217-2.434 1.825-4.26 3.65-6.085 1.826-1.825 3.651-3.042 6.085-3.65 1.825-.609 4.259-1.217 9.126-1.825H101Zm0-9.127H80.313c-5.476 0-9.126 1.217-12.168 2.434-3.043 1.217-6.085 3.042-9.127 6.084-3.042 3.042-4.259 5.476-6.084 9.127-1.217 3.042-1.826 6.692-2.434 12.168v41.374c0 5.476 1.217 9.126 2.434 12.168 1.217 3.043 3.042 6.085 6.084 9.127 3.042 3.042 5.476 4.259 9.127 6.084 3.042 1.217 6.692 1.826 12.168 2.434h41.374c5.476 0 9.126-1.217 12.168-2.434 3.043-1.217 6.085-3.042 9.127-6.084 3.042-3.042 4.259-5.476 6.084-9.127 1.217-3.042 1.826-6.692 2.434-12.168V80.313c0-5.476-1.217-9.126-2.434-12.168-1.217-3.043-3.042-6.085-6.084-9.127-3.042-3.042-5.476-4.259-9.127-6.084-3.042-1.217-6.692-1.826-12.168-2.434H101Z" fill="#121212"/><path d="M101 74.837c-14.602 0-26.163 11.56-26.163 26.163 0 14.602 11.56 26.163 26.163 26.163 14.602 0 26.163-11.561 26.163-26.163S115.602 74.837 101 74.837Zm0 43.199c-9.126 0-17.036-7.301-17.036-17.036 0-9.126 7.301-17.036 17.036-17.036 9.127 0 17.036 7.301 17.036 17.036 0 9.127-7.909 17.036-17.036 17.036ZM127.771 80.313a6.084 6.084 0 1 0 0-12.168 6.084 6.084 0 0 0 0 12.168Z" fill="#121212"/></svg>