<svg width="95" height="55" fill="none" xmlns="http://www.w3.org/2000/svg"><g clip-path="url(#a)" fill="#fff"><path d="M9.819 38.053v2.454H2.77c-.15 0-.219.083-.219.236v1.055h7.225v1.784H2.551v1.116c0 .165.069.248.22.248h7.048v2.372H1.37c-.862 0-1.303-.424-1.303-1.289v-6.728c0-.836.44-1.248 1.317-1.248H9.82ZM23.386 38.053c-.08.11-.171.212-.274.301l-4.155 4.02 4.69 4.661c.086.09.165.186.236.288h-3.56a1.51 1.51 0 0 0-.219-.274l-2.947-3.062-3.114 3.062c-.095.095-.177.191-.236.274H10.53c.067-.106.146-.202.236-.288l4.784-4.662-4.127-4.019a1.207 1.207 0 0 1-.261-.301h3.455c.072.106.15.206.236.301l2.455 2.497 2.591-2.497a1.65 1.65 0 0 0 .26-.301h3.227ZM31.55 38.053c1.318 0 2.168.384 2.785 1a3.47 3.47 0 0 1 .22 4.691c-.632.754-1.579 1.249-3.004 1.249h-4.264v2.33h-2.488V38.63c0-.384.208-.577.603-.577h6.149Zm.055 4.662c.549 0 .865-.163 1.07-.439a1.06 1.06 0 0 0 .219-.657 1.098 1.098 0 0 0-.236-.706 1.264 1.264 0 0 0-1.055-.413h-4.14c-.108 0-.176.057-.176.194v2.014l4.318.007ZM46.098 38.053v2.454h-7.046c-.151 0-.222.083-.222.236v1.055h7.228v1.784H38.83v1.116c0 .165.07.248.222.248h7.046v2.372h-8.446c-.864 0-1.302-.424-1.302-1.289v-6.728c0-.836.438-1.248 1.316-1.248h8.432ZM49.744 47.323h-2.48V38.63c0-.384.205-.577.617-.577h6.582c1.138 0 1.863.344 2.372.878.47.492.735 1.144.74 1.824 0 .74-.22 1.44-.879 1.92.617.37.893.864.893 1.92v1.851c-.003.293.01.585.04.877H55.12a4.534 4.534 0 0 1-.04-.618v-1.851c0-.59-.29-.822-1.015-.822h-4.32v3.29Zm4.39-5.402a.85.85 0 0 0 .706-.302.775.775 0 0 0 .179-.47.74.74 0 0 0-.207-.522.868.868 0 0 0-.672-.247h-4.188a.188.188 0 0 0-.208.205v1.345l4.39-.01ZM69.024 38.053v2.454h-4.06v6.816H62.47v-6.816h-4.073v-2.454h10.627ZM72.505 38.053v9.27h-2.494v-9.27h2.495ZM83.585 40.507H76.92a.747.747 0 0 0-.574.18.653.653 0 0 0 .042.963.737.737 0 0 0 .535.136h4.073c1.041 0 1.74.33 2.236.837a2.728 2.728 0 0 1 .108 3.731c-.507.59-1.246.96-2.344.96h-7.197V44.95h6.747c.384 0 .575-.082.707-.235.1-.119.153-.27.15-.424a.707.707 0 0 0-.193-.495c-.122-.137-.301-.205-.657-.205h-3.77c-1.234 0-1.945-.33-2.44-.836a2.735 2.735 0 0 1-.782-1.934 2.775 2.775 0 0 1 .796-1.934c.493-.507 1.192-.837 2.427-.837h6.8v2.457ZM94.765 38.053v2.454h-7.053c-.15 0-.22.083-.22.236v1.055h7.226v1.784h-7.225v1.116c0 .165.068.248.219.248h7.053v2.372h-8.453c-.864 0-1.302-.424-1.302-1.289v-6.728c0-.836.438-1.248 1.317-1.248h8.438ZM2.38 53.947a1.494 1.494 0 0 1-.394.794 1.032 1.032 0 0 1-.745.261 1.068 1.068 0 0 1-.925-.454 2.184 2.184 0 0 1-.325-1.289c-.028-.44.086-.878.325-1.248a1.081 1.081 0 0 1 .925-.436c.253-.01.5.074.693.235.2.191.34.437.403.707l-.283.068a1.296 1.296 0 0 0-.327-.567.725.725 0 0 0-.504-.184.755.755 0 0 0-.674.374 2.49 2.49 0 0 0 0 2.14.79.79 0 0 0 .707.383.73.73 0 0 0 .539-.21c.161-.178.27-.398.313-.635l.271.061ZM4.023 53.292c-.022-.443.104-.88.359-1.244a1.178 1.178 0 0 1 1.884 0 2.356 2.356 0 0 1 0 2.488 1.178 1.178 0 0 1-1.884 0c-.255-.363-.38-.801-.359-1.244Zm.323 0c-.021.373.07.744.262 1.065a.852.852 0 0 0 1.427 0 2.271 2.271 0 0 0 0-2.12.854.854 0 0 0-1.427 0c-.19.317-.282.685-.262 1.055ZM8.582 54.946v-3.31h.544l.907 2.827.914-2.827h.542v3.31h-.283v-2.997h-.07l-.97 2.997h-.26l-.97-2.997h-.071v2.997h-.283ZM14.556 51.636c.313-.02.625.062.886.236a.814.814 0 0 1 .297.687.853.853 0 0 1-.285.693 1.31 1.31 0 0 1-.844.236h-.605v1.465h-.306v-3.317h.857Zm-.551 1.569h.678a.791.791 0 0 0 .545-.17.61.61 0 0 0 .19-.47.59.59 0 0 0-.202-.493.999.999 0 0 0-.62-.16h-.591v1.293ZM18.302 54.946v-3.044h-.98v-.266h2.27v.266h-.98v3.044h-.31ZM20.794 54.946l1.037-3.31h.412l1.037 3.31h-.316l-.332-1.086h-1.209l-.33 1.086h-.299Zm.707-1.352h1.05l-.52-1.746-.53 1.746ZM26.08 51.636c.297-.02.592.052.846.205a.706.706 0 0 1 .288.608.77.77 0 0 1-.111.43.804.804 0 0 1-.358.279v.023a.962.962 0 0 1 .445.32.85.85 0 0 1 .141.505.868.868 0 0 1-.28.707 1.31 1.31 0 0 1-.848.235h-1.088v-3.312h.966Zm0 .266h-.654v1.178h.742a.854.854 0 0 0 .544-.153.52.52 0 0 0 .19-.434.512.512 0 0 0-.202-.442 1.088 1.088 0 0 0-.624-.149h.005Zm.045 1.435h-.706v1.343h.793c.211.013.42-.049.59-.175a.613.613 0 0 0 .204-.494.596.596 0 0 0-.219-.507 1.11 1.11 0 0 0-.666-.167h.004ZM29.325 54.946v-3.31h.306v3.31h-.306ZM31.88 54.946v-3.31h.307v3.044h1.481v.266H31.88ZM35.499 54.946v-3.31h.306v3.31H35.5ZM38.656 54.946v-3.044h-.98v-.266h2.268v.266h-.98v3.044h-.308ZM43.73 54.68v.266h-1.97v-3.31h1.9v.266h-1.59v1.16h1.149v.265h-1.15v1.353h1.661Zm-1.076-3.346h-.208l.471-.784h.34l-.603.784ZM47.886 54.946l1.036-3.31h.413l1.034 3.31h-.316l-.332-1.086h-1.209l-.332 1.086h-.294Zm.706-1.352h1.051l-.523-1.746-.527 1.746ZM52.41 53.864a.875.875 0 1 0 1.746 0v-2.228h.307v2.228a1.128 1.128 0 0 1-.302.844 1.451 1.451 0 0 1-1.753 0 1.116 1.116 0 0 1-.303-.843v-2.229h.306v2.228ZM56.663 54.946v-3.31h.806a1.55 1.55 0 0 1 1.178.405 1.648 1.648 0 0 1 .39 1.204c.033.457-.108.91-.395 1.267a1.498 1.498 0 0 1-1.164.434h-.815Zm.306-.266h.471a1.25 1.25 0 0 0 .962-.337c.23-.296.341-.668.31-1.042 0-.499-.096-.855-.292-1.074a1.248 1.248 0 0 0-.965-.325h-.471l-.015 2.778ZM61.03 54.946v-3.31h.307v3.31h-.306ZM64.185 54.946v-3.044h-.987v-.266h2.271v.266h-.98v3.044h-.304ZM72.091 53.947a1.477 1.477 0 0 1-.393.794c-.201.18-.465.275-.735.261a1.068 1.068 0 0 1-.924-.454 2.165 2.165 0 0 1-.327-1.289 2.052 2.052 0 0 1 .318-1.258 1.082 1.082 0 0 1 .923-.436c.252-.01.5.074.693.236.201.19.342.436.405.707l-.285.068a1.273 1.273 0 0 0-.328-.568.707.707 0 0 0-.501-.184.751.751 0 0 0-.672.39 1.998 1.998 0 0 0-.235 1.064 1.96 1.96 0 0 0 .25 1.074.785.785 0 0 0 .692.384.732.732 0 0 0 .54-.21c.16-.18.268-.402.308-.64l.271.061ZM73.737 53.292c-.022-.443.103-.88.356-1.244a1.179 1.179 0 0 1 1.885 0 2.356 2.356 0 0 1 0 2.488 1.179 1.179 0 0 1-1.885 0 1.996 1.996 0 0 1-.356-1.244Zm.32 0c-.02.37.072.74.262 1.058a.852.852 0 0 0 1.428 0 2.253 2.253 0 0 0 0-2.12.852.852 0 0 0-1.428 0c-.191.32-.282.69-.261 1.062ZM78.576 51.876v3.063h-.301v-3.303h.5l1.585 2.794v-2.794h.299v3.31h-.328l-1.755-3.07ZM82.577 54.154l.266-.11c.067.201.185.381.344.523a.789.789 0 0 0 .513.17.707.707 0 0 0 .504-.178.605.605 0 0 0 .191-.47.564.564 0 0 0-.124-.38 1.06 1.06 0 0 0-.425-.27 8.087 8.087 0 0 0-.433-.159 2.37 2.37 0 0 1-.346-.136.956.956 0 0 1-.34-.295.688.688 0 0 1-.1-.386.836.836 0 0 1 .254-.648.976.976 0 0 1 .695-.236c.232-.008.46.06.65.196.188.153.325.36.39.594l-.26.082a1.019 1.019 0 0 0-.316-.457.762.762 0 0 0-.472-.148.624.624 0 0 0-.445.16.533.533 0 0 0-.172.414.489.489 0 0 0 .11.323.752.752 0 0 0 .345.215c.059.023.146.054.259.091.219.064.43.153.629.264.133.08.246.19.328.323.07.127.105.27.1.415a.894.894 0 0 1-.272.69c-.205.18-.47.273-.743.259a1.105 1.105 0 0 1-.692-.207 1.362 1.362 0 0 1-.438-.639ZM88.59 54.68v.266h-1.966v-3.31h1.896v.266h-1.59v1.16h1.152v.265H86.93v1.353h1.66ZM90.485 54.946v-3.31h.306v3.31h-.306ZM93.041 54.946v-3.31h.311v3.044h1.482v.266H93.04ZM40.111 12.064l3.428 10.973 11.01-16.896-2.47-.23L61.457 0l-.627 11.07-1.4-2.052-17.792 21.534-1.527-18.488Z"/><path d="M70.013 15.958c.024-3.802-2.207-6.076-4.697-7.43a8.84 8.84 0 0 0-3.531-1.015l-.205 3.6v.105c3.444 1.604 3.449 4.313 3.449 4.313.141 5.06-5.115 5.911-6.373 6.04v-10.13l-.03.03v-.298l-4.681 5.654v12.326h4.711v-3.581c11.673-1.334 11.357-9.614 11.357-9.614ZM41.502 11.204l8.815.045 2.911-4.476-1.22-.116-.862-.08h-15.84c-3.378.471-5.701 1.932-7.287 3.583a11.572 11.572 0 0 0-2.379 12.283c2.665 6.658 10.384 7.117 10.384 7.117v-4.756c-7.05-.785-6.66-6.987-6.66-6.987.524-6.005 5.812-6.66 5.812-6.66l5.633.042.693.005Z"/></g><defs><clipPath id="a"><path fill="#fff" d="M0 0h94.829v55H0z"/></clipPath></defs></svg>