<svg width="95" height="55" viewBox="0 0 95 55" fill="none" xmlns="http://www.w3.org/2000/svg">
<g clip-path="url(#clip0_136_254)">
<path d="M9.81886 38.0527V40.5074H2.77042C2.61965 40.5074 2.55133 40.5898 2.55133 40.7429V41.7983H9.77646V43.5816H2.55133V44.6983C2.55133 44.8632 2.61965 44.9456 2.77042 44.9456H9.81886V47.3179H1.3711C0.508887 47.3179 0.0683594 46.8938 0.0683594 46.0293V39.3012C0.0683594 38.4649 0.508887 38.0527 1.38523 38.0527H9.81886Z" fill="white"/>
<path d="M23.3857 38.0527C23.3065 38.1633 23.2148 38.2645 23.1124 38.3542L18.9568 42.3731L23.6472 47.0352C23.7334 47.1244 23.8122 47.2205 23.8827 47.3226H20.3232C20.261 47.2233 20.1875 47.1316 20.1041 47.0493L17.157 43.9868L14.0427 47.0493C13.9485 47.1435 13.866 47.2401 13.8071 47.3226H10.5303C10.5965 47.2173 10.6757 47.1208 10.7658 47.0352L15.5504 42.3731L11.4231 38.3542C11.3198 38.2689 11.2314 38.167 11.1616 38.0527H14.6175C14.6889 38.1586 14.7676 38.2593 14.8531 38.3542L17.3078 40.8513L19.8991 38.3542C19.9974 38.2645 20.0844 38.1632 20.1583 38.0527H23.3857Z" fill="white"/>
<path d="M31.5509 38.0527C32.8678 38.0527 33.7182 38.4366 34.3354 39.0538C34.953 39.666 35.3182 40.4877 35.3588 41.3563C35.3993 42.2249 35.1123 43.0771 34.5545 43.7442C33.9232 44.498 32.9762 44.9927 31.5509 44.9927H27.287V47.3226H24.7993V38.6298C24.7993 38.2458 25.0066 38.0527 25.4024 38.0527H31.5509ZM31.6051 42.7147C32.154 42.7147 32.4697 42.5522 32.6746 42.2765C32.8192 42.0882 32.8964 41.8567 32.8937 41.6193C32.9 41.3634 32.8166 41.1135 32.6581 40.9125C32.5264 40.7665 32.3624 40.6532 32.1792 40.5817C31.996 40.5101 31.7986 40.4822 31.6028 40.5003H27.4637C27.3553 40.5003 27.287 40.5568 27.287 40.6935V42.7076L31.6051 42.7147Z" fill="white"/>
<path d="M46.0978 38.0527V40.5074H39.0517C38.9009 40.5074 38.8302 40.5898 38.8302 40.7429V41.7983H46.0577V43.5816H38.8302V44.6983C38.8302 44.8632 38.9009 44.9456 39.0517 44.9456H46.0978V47.3179H37.6523C36.7878 47.3179 36.3496 46.8938 36.3496 46.0293V39.3012C36.3496 38.4649 36.7878 38.0527 37.6665 38.0527H46.0978Z" fill="white"/>
<path d="M49.7443 47.3226H47.2637V38.6298C47.2637 38.2458 47.4686 38.0527 47.8809 38.0527H54.4629C55.6007 38.0527 56.3263 38.3966 56.8351 38.9313C57.3051 39.4226 57.5697 40.0749 57.5748 40.7547C57.5748 41.4944 57.3558 42.1941 56.6961 42.6747C57.3134 43.0445 57.589 43.5392 57.589 44.5946V46.4462C57.5861 46.7389 57.5994 47.0314 57.629 47.3226H55.1201C55.0927 47.118 55.0794 46.9118 55.0801 46.7054V44.8537C55.0801 44.2648 54.7903 44.0316 54.0648 44.0316H49.7443V47.3226ZM54.1331 41.9208C54.2663 41.9295 54.3997 41.9068 54.5224 41.8544C54.6452 41.802 54.7539 41.7215 54.8398 41.6193C54.9503 41.4866 55.0133 41.3207 55.0188 41.1481C55.0207 40.9541 54.9462 40.7671 54.8115 40.6275C54.7237 40.5409 54.6183 40.474 54.5026 40.4313C54.3868 40.3887 54.2632 40.3712 54.1401 40.3801H49.9516C49.9239 40.3772 49.8958 40.3805 49.8695 40.3898C49.8432 40.399 49.8193 40.4139 49.7994 40.4336C49.7796 40.4532 49.7644 40.4769 49.7548 40.5031C49.7453 40.5293 49.7417 40.5573 49.7443 40.5851V41.9302L54.1331 41.9208Z" fill="white"/>
<path d="M69.0238 38.0527V40.5074H64.9648V47.3226H62.4701V40.5074H58.397V38.0527H69.0238Z" fill="white"/>
<path d="M72.5055 38.0527V47.3226H70.0107V38.0527H72.5055Z" fill="white"/>
<path d="M83.5849 40.5074H76.9204C76.8174 40.4957 76.7131 40.5056 76.6142 40.5364C76.5152 40.5672 76.4238 40.6183 76.3456 40.6864C76.2836 40.748 76.2345 40.8215 76.2014 40.9024C76.1682 40.9833 76.1516 41.0701 76.1524 41.1575C76.1524 41.252 76.1735 41.3453 76.2143 41.4305C76.255 41.5157 76.3144 41.5907 76.388 41.6499C76.5419 41.763 76.7336 41.8119 76.9228 41.7865H80.9959C82.0371 41.7865 82.7368 42.1163 83.2315 42.6228C83.7205 43.1145 84.0038 43.774 84.0239 44.4672C84.0441 45.1603 83.7995 45.8351 83.3399 46.3544C82.8334 46.9433 82.0937 47.3132 80.9959 47.3132H73.799V44.9503H80.5459C80.9299 44.9503 81.1208 44.8679 81.2527 44.7147C81.3522 44.5961 81.4057 44.4456 81.4034 44.2907C81.4058 44.107 81.3365 43.9295 81.2103 43.796C81.0878 43.6594 80.9087 43.591 80.553 43.591H76.7838C75.5494 43.591 74.8379 43.2612 74.3432 42.7548C73.8372 42.2387 73.556 41.5434 73.5611 40.8207C73.5641 40.0968 73.8498 39.4028 74.3574 38.8866C74.8497 38.3801 75.5494 38.0503 76.7838 38.0503H83.5849V40.5074Z" fill="white"/>
<path d="M94.765 38.0527V40.5074H87.7118C87.5611 40.5074 87.4927 40.5898 87.4927 40.7429V41.7983H94.7179V43.5816H87.4927V44.6983C87.4927 44.8632 87.5611 44.9456 87.7118 44.9456H94.765V47.3179H86.3125C85.4479 47.3179 85.0098 46.8938 85.0098 46.0293V39.3012C85.0098 38.4649 85.4479 38.0527 86.3266 38.0527H94.765Z" fill="white"/>
<path d="M2.37928 53.947C2.33146 54.2453 2.19428 54.5221 1.98586 54.7409C1.78216 54.9232 1.51443 55.0173 1.24144 55.0024C1.06128 55.011 0.881862 54.9738 0.719959 54.8943C0.558056 54.8148 0.418947 54.6955 0.315628 54.5477C0.0760214 54.1624 -0.0376072 53.712 -0.00946709 53.2591C-0.036996 52.8189 0.0769129 52.3814 0.315628 52.0105C0.421967 51.8671 0.56217 51.7522 0.72372 51.6762C0.88527 51.6001 1.06314 51.5653 1.24144 51.5747C1.49353 51.5647 1.74035 51.6486 1.93404 51.8103C2.13467 52.0013 2.27475 52.2471 2.33687 52.517L2.05418 52.5853C1.99549 52.3712 1.88273 52.1757 1.72673 52.0176C1.58834 51.8942 1.40795 51.8284 1.2226 51.8339C1.08703 51.8301 0.952948 51.8629 0.834412 51.9288C0.715875 51.9947 0.617244 52.0913 0.548849 52.2084C0.389923 52.5426 0.307461 52.9079 0.307461 53.2779C0.307461 53.648 0.389923 54.0133 0.548849 54.3475C0.621405 54.4689 0.725289 54.5687 0.849625 54.6362C0.97396 54.7038 1.11417 54.7367 1.25558 54.7314C1.35502 54.735 1.45414 54.7182 1.54689 54.6821C1.63964 54.6461 1.72408 54.5915 1.79505 54.5218C1.95618 54.3427 2.06462 54.1226 2.10836 53.8857L2.37928 53.947Z" fill="white"/>
<path d="M4.02349 53.2921C4.00132 52.8492 4.12731 52.4115 4.38157 52.0482C4.49129 51.9019 4.63356 51.7832 4.79711 51.7014C4.96067 51.6196 5.14101 51.5771 5.32388 51.5771C5.50674 51.5771 5.68708 51.6196 5.85064 51.7014C6.0142 51.7832 6.15646 51.9019 6.26618 52.0482C6.49831 52.4216 6.62132 52.8524 6.62132 53.2921C6.62132 53.7317 6.49831 54.1626 6.26618 54.5359C6.15646 54.6822 6.0142 54.8009 5.85064 54.8827C5.68708 54.9645 5.50674 55.0071 5.32388 55.0071C5.14101 55.0071 4.96067 54.9645 4.79711 54.8827C4.63356 54.8009 4.49129 54.6822 4.38157 54.5359C4.12731 54.1726 4.00132 53.735 4.02349 53.2921ZM4.34623 53.2921C4.32464 53.6652 4.41575 54.0362 4.60772 54.3569C4.68525 54.4755 4.79111 54.5729 4.91574 54.6403C5.04036 54.7077 5.17983 54.743 5.32152 54.743C5.46321 54.743 5.60267 54.7077 5.7273 54.6403C5.85192 54.5729 5.95778 54.4755 6.03532 54.3569C6.20778 54.0301 6.29793 53.6662 6.29793 53.2968C6.29793 52.9273 6.20778 52.5634 6.03532 52.2367C5.95778 52.1181 5.85192 52.0207 5.7273 51.9532C5.60267 51.8858 5.46321 51.8505 5.32152 51.8505C5.17983 51.8505 5.04036 51.8858 4.91574 51.9532C4.79111 52.0207 4.68525 52.1181 4.60772 52.2367C4.41731 52.5545 4.32625 52.9221 4.34623 53.2921Z" fill="white"/>
<path d="M8.58203 54.9458V51.636H9.12621L10.0332 54.4629L10.9472 51.636H11.489V54.9458H11.2064V51.9493H11.1357L10.1651 54.9458H9.90597L8.9354 51.9493H8.86472V54.9458H8.58203Z" fill="white"/>
<path d="M14.5562 51.636C14.8693 51.6152 15.1806 51.698 15.442 51.8716C15.5429 51.9541 15.6225 52.0597 15.6741 52.1794C15.7258 52.2991 15.748 52.4294 15.7388 52.5594C15.7471 52.689 15.7258 52.8187 15.6764 52.9387C15.627 53.0587 15.5509 53.1659 15.4538 53.252C15.208 53.425 14.9102 53.5082 14.6104 53.4876H14.005V54.9529H13.6987V51.636H14.5562ZM14.005 53.2049H14.6834C14.8796 53.2179 15.0736 53.1575 15.2276 53.0353C15.2914 52.9751 15.3415 52.9018 15.3744 52.8205C15.4074 52.7392 15.4224 52.6518 15.4184 52.5641C15.4255 52.472 15.4109 52.3794 15.3757 52.2939C15.3405 52.2084 15.2858 52.1323 15.2158 52.0718C15.0325 51.9519 14.8148 51.8956 14.5963 51.9116H14.005V53.2049Z" fill="white"/>
<path d="M18.3018 54.9458V51.9022H17.3218V51.636H19.5927V51.9022H18.6127V54.9458H18.3018Z" fill="white"/>
<path d="M20.7944 54.9458L21.831 51.636H22.2432L23.2798 54.9458H22.9641L22.6319 53.8598H21.4234L21.0936 54.9458H20.7944ZM21.5012 53.5936H22.5518L22.0312 51.848L21.5012 53.5936Z" fill="white"/>
<path d="M26.0806 51.636C26.3769 51.616 26.6721 51.6876 26.9263 51.8409C27.0209 51.9104 27.0968 52.0023 27.1469 52.1084C27.1971 52.2146 27.2201 52.3315 27.2137 52.4487C27.22 52.6002 27.1815 52.7501 27.103 52.8798C27.0128 53.0049 26.8885 53.1014 26.7449 53.1578V53.1813C26.9213 53.2426 27.076 53.354 27.1902 53.5017C27.2891 53.6507 27.3386 53.8271 27.3315 54.0059C27.3414 54.1372 27.3213 54.2691 27.2727 54.3915C27.2242 54.5139 27.1484 54.6237 27.0512 54.7126C26.8041 54.8866 26.5045 54.9698 26.2031 54.9482H25.1147V51.636H26.0806ZM26.0806 51.9022H25.4257V53.08H26.1678C26.3613 53.0922 26.5532 53.0382 26.712 52.9269C26.7758 52.8749 26.8263 52.8085 26.8595 52.7331C26.8927 52.6578 26.9075 52.5757 26.9028 52.4935C26.9085 52.4086 26.893 52.3237 26.8576 52.2463C26.8222 52.169 26.7681 52.1017 26.7002 52.0506C26.5117 51.9395 26.2942 51.8878 26.0759 51.9022H26.0806ZM26.1254 53.3368H25.4186V54.6796H26.2125C26.4233 54.6928 26.6319 54.631 26.8015 54.5053C26.8709 54.4437 26.9254 54.3672 26.9609 54.2815C26.9964 54.1958 27.012 54.1032 27.0064 54.0106C27.0134 53.9147 26.9972 53.8186 26.959 53.7304C26.9209 53.6423 26.862 53.5646 26.7873 53.5041C26.5884 53.3792 26.355 53.3206 26.1207 53.3368H26.1254Z" fill="white"/>
<path d="M29.3247 54.9458V51.636H29.631V54.9458H29.3247Z" fill="white"/>
<path d="M31.8804 54.9458V51.636H32.1866V54.6796H33.6684V54.9458H31.8804Z" fill="white"/>
<path d="M35.499 54.9458V51.636H35.8053V54.9458H35.499Z" fill="white"/>
<path d="M38.6558 54.9458V51.9022H37.6758V51.636H39.9444V51.9022H38.9644V54.9458H38.6558Z" fill="white"/>
<path d="M43.7302 54.6796V54.9458H41.7607V51.636H43.6595V51.9022H42.0693V53.0612H43.219V53.3274H42.0693V54.6796H43.7302ZM42.6536 51.3344H42.4463L42.9174 50.55H43.2567L42.6536 51.3344Z" fill="white"/>
<path d="M47.8857 54.9458L48.9223 51.636H49.3345L50.3687 54.9458H50.053L49.7209 53.8598H48.5124L48.1802 54.9458H47.8857ZM48.5925 53.5936H49.6431L49.1202 51.848L48.5925 53.5936Z" fill="white"/>
<path d="M52.4108 53.8645C52.4047 53.983 52.4227 54.1014 52.4638 54.2127C52.5048 54.3239 52.5681 54.4256 52.6498 54.5116C52.7314 54.5976 52.8297 54.6661 52.9387 54.7129C53.0477 54.7597 53.165 54.7839 53.2836 54.7839C53.4022 54.7839 53.5196 54.7597 53.6285 54.7129C53.7375 54.6661 53.8358 54.5976 53.9175 54.5116C53.9991 54.4256 54.0624 54.3239 54.1035 54.2127C54.1446 54.1014 54.1626 53.983 54.1564 53.8645V51.636H54.4627V53.8645C54.4728 54.0182 54.4512 54.1724 54.3994 54.3175C54.3475 54.4625 54.2664 54.5954 54.1612 54.7079C53.909 54.899 53.6012 55.0024 53.2848 55.0024C52.9684 55.0024 52.6607 54.899 52.4085 54.7079C52.3023 54.5959 52.2205 54.4632 52.1682 54.318C52.1159 54.1729 52.0942 54.0185 52.1046 53.8645V51.636H52.4108V53.8645Z" fill="white"/>
<path d="M56.6631 54.9458V51.636H57.4688C57.6824 51.6184 57.8974 51.6453 58.1002 51.7151C58.3029 51.7848 58.489 51.8958 58.6466 52.0412C58.7879 52.2062 58.8952 52.3975 58.9623 52.6041C59.0294 52.8106 59.055 53.0284 59.0377 53.245C59.0704 53.7022 58.9291 54.155 58.6419 54.5124C58.4902 54.6636 58.3078 54.7806 58.1071 54.8553C57.9063 54.9301 57.6919 54.961 57.4782 54.9458H56.6631ZM56.9693 54.6796H57.4405C57.6154 54.694 57.7913 54.6715 57.9569 54.6134C58.1225 54.5554 58.274 54.4632 58.4016 54.3428C58.6322 54.0469 58.7431 53.6753 58.7126 53.3015C58.7126 52.8021 58.616 52.4464 58.4205 52.2273C58.2914 52.1082 58.1387 52.0177 57.9722 51.9617C57.8058 51.9057 57.6294 51.8854 57.4546 51.9022H56.9835L56.9693 54.6796Z" fill="white"/>
<path d="M61.0308 54.9458V51.636H61.337V54.9458H61.0308Z" fill="white"/>
<path d="M64.1853 54.9458V51.9022H63.1982V51.636H65.4692V51.9022H64.4892V54.9458H64.1853Z" fill="white"/>
<path d="M72.091 53.947C72.0442 54.2456 71.9069 54.5227 71.6976 54.7409C71.4966 54.9215 71.2325 55.0155 70.9626 55.0024C70.7828 55.0106 70.6039 54.9732 70.4424 54.8937C70.281 54.8142 70.1422 54.6952 70.0391 54.5477C69.7975 54.1631 69.683 53.7123 69.7117 53.2591C69.6788 52.8164 69.7904 52.375 70.0297 52.0011C70.1358 51.858 70.2757 51.7434 70.4368 51.6673C70.5979 51.5913 70.7753 51.5563 70.9532 51.5653C71.2053 51.5553 71.4521 51.6392 71.6458 51.8009C71.8473 51.9916 71.9882 52.2374 72.051 52.5076L71.7659 52.5759C71.7082 52.3613 71.5953 52.1656 71.4385 52.0082C71.3017 51.8836 71.1215 51.8177 70.9367 51.8244C70.8 51.822 70.6653 51.857 70.547 51.9255C70.4286 51.9939 70.3313 52.0934 70.2653 52.2131C70.0895 52.5394 70.008 52.908 70.0297 53.2779C70.0084 53.6525 70.0951 54.0254 70.2794 54.3522C70.3504 54.4719 70.452 54.5705 70.5737 54.638C70.6954 54.7055 70.8329 54.7393 70.972 54.7362C71.0715 54.7398 71.1706 54.7231 71.2634 54.6871C71.3562 54.651 71.4406 54.5964 71.5115 54.5265C71.6726 54.3462 71.7796 54.1241 71.8201 53.8857L72.091 53.947Z" fill="white"/>
<path d="M73.7375 53.2921C73.7147 52.8495 73.8398 52.4118 74.0932 52.0482C74.203 51.9019 74.3452 51.7832 74.5088 51.7014C74.6723 51.6196 74.8527 51.5771 75.0355 51.5771C75.2184 51.5771 75.3988 51.6196 75.5623 51.7014C75.7259 51.7832 75.8681 51.9019 75.9779 52.0482C76.21 52.4216 76.333 52.8524 76.333 53.2921C76.333 53.7317 76.21 54.1626 75.9779 54.5359C75.8681 54.6822 75.7259 54.8009 75.5623 54.8827C75.3988 54.9645 75.2184 55.0071 75.0355 55.0071C74.8527 55.0071 74.6723 54.9645 74.5088 54.8827C74.3452 54.8009 74.203 54.6822 74.0932 54.5359C73.8398 54.1723 73.7147 53.7347 73.7375 53.2921ZM74.0579 53.2921C74.0377 53.6628 74.1288 54.0312 74.3194 54.3498C74.3969 54.4684 74.5028 54.5658 74.6274 54.6332C74.752 54.7007 74.8915 54.736 75.0332 54.736C75.1749 54.736 75.3143 54.7007 75.439 54.6332C75.5636 54.5658 75.6695 54.4684 75.747 54.3498C75.921 54.0236 76.0121 53.6595 76.0121 53.2897C76.0121 52.9199 75.921 52.5559 75.747 52.2296C75.6695 52.111 75.5636 52.0136 75.439 51.9462C75.3143 51.8788 75.1749 51.8435 75.0332 51.8435C74.8915 51.8435 74.752 51.8788 74.6274 51.9462C74.5028 52.0136 74.3969 52.111 74.3194 52.2296C74.1276 52.5495 74.0365 52.9197 74.0579 53.2921Z" fill="white"/>
<path d="M78.5764 51.8763V54.9387H78.2749V51.636H78.7743L80.3598 54.4299V51.636H80.6589V54.9458H80.3315L78.5764 51.8763Z" fill="white"/>
<path d="M82.5767 54.1543L82.8429 54.0436C82.9098 54.245 83.0284 54.4253 83.1868 54.5665C83.3327 54.6818 83.5145 54.7419 83.7004 54.7361C83.885 54.7455 84.066 54.682 84.2045 54.5595C84.2686 54.4995 84.3188 54.4262 84.3517 54.3449C84.3847 54.2635 84.3996 54.176 84.3953 54.0883C84.4014 53.9509 84.357 53.816 84.2705 53.709C84.1529 53.586 84.0075 53.4931 83.8464 53.4381C83.738 53.3934 83.592 53.3415 83.413 53.2803C83.2941 53.2439 83.1783 53.1982 83.0667 53.1437C82.9318 53.0739 82.8155 52.9729 82.7274 52.8492C82.6562 52.7333 82.6209 52.5988 82.6261 52.4628C82.6195 52.3429 82.6388 52.223 82.6827 52.1112C82.7266 51.9994 82.7941 51.8984 82.8805 51.815C83.0727 51.649 83.322 51.5645 83.5755 51.5794C83.8079 51.5708 84.0366 51.6396 84.2257 51.775C84.4141 51.9278 84.5506 52.1352 84.6168 52.3686L84.3553 52.4511C84.2944 52.2724 84.1852 52.1142 84.0396 51.994C83.9034 51.8936 83.7376 51.8413 83.5684 51.8456C83.4048 51.8385 83.2448 51.8961 83.1232 52.0058C83.0661 52.0582 83.0211 52.1225 82.9914 52.1941C82.9617 52.2657 82.948 52.343 82.9512 52.4204C82.9481 52.5378 82.9874 52.6524 83.0619 52.7432C83.1548 52.8448 83.2738 52.9189 83.4059 52.9575C83.4648 52.9811 83.5519 53.0117 83.665 53.0494C83.8839 53.1134 84.0949 53.2019 84.294 53.3133C84.4273 53.3932 84.5396 53.5039 84.6215 53.636C84.6918 53.7626 84.7268 53.9058 84.7228 54.0506C84.7294 54.1785 84.7084 54.3064 84.6613 54.4255C84.6141 54.5446 84.5419 54.6521 84.4495 54.7409C84.2454 54.9207 83.9791 55.0136 83.7074 55C83.4598 55.0105 83.2159 54.9375 83.0148 54.7927C82.8101 54.6268 82.6579 54.405 82.5767 54.1543Z" fill="white"/>
<path d="M88.5906 54.6796V54.9458H86.6235V51.636H88.5199V51.9022H86.9298V53.0612H88.0818V53.3274H86.9298V54.6796H88.5906Z" fill="white"/>
<path d="M90.4849 54.9458V51.636H90.7911V54.9458H90.4849Z" fill="white"/>
<path d="M93.041 54.9458V51.636H93.352V54.6796H94.8338V54.9458H93.041Z" fill="white"/>
<path d="M40.1113 12.0639L43.539 23.037L54.5498 6.14147L52.0786 5.91061L61.4569 0L60.8303 11.0697L59.4309 9.01786L41.6379 30.5519L40.1113 12.0639Z" fill="white"/>
<path d="M70.0135 15.9579C70.037 12.1557 67.8061 9.88243 65.3161 8.52786C64.2231 7.94579 63.02 7.59987 61.7848 7.51253L61.5799 11.1121V11.2181C65.024 12.8224 65.0287 15.5315 65.0287 15.5315C65.17 20.5917 59.9143 21.4422 58.6564 21.5717V11.4419L58.6257 11.4702V11.1734L53.9448 16.8272V29.1526H58.6564V25.5718C70.3292 24.2384 70.0135 15.9579 70.0135 15.9579Z" fill="white"/>
<path d="M41.5015 11.204L50.3167 11.2488L53.2285 6.77281L52.0082 6.65738L51.146 6.57729H35.3058C31.9276 7.04844 29.6049 8.50901 28.0194 10.1604C26.4873 11.7644 25.4484 13.7749 25.0266 15.9526C24.6048 18.1303 24.8177 20.3833 25.6401 22.4434C28.3045 29.1007 36.0243 29.5601 36.0243 29.5601V24.8038C28.9735 24.0194 29.3646 17.8166 29.3646 17.8166C29.8876 11.8118 35.1762 11.1569 35.1762 11.1569L40.8089 11.1993L41.5015 11.204Z" fill="white"/>
</g>
<defs>
<clipPath id="clip0_136_254">
<rect width="94.8289" height="55" fill="white"/>
</clipPath>
</defs>
</svg>
