<svg width="202" height="202" fill="none" xmlns="http://www.w3.org/2000/svg"><rect x=".5" y=".5" width="201" height="201" rx="4.5" fill="#FAFAFA" stroke="#121212"/><path d="M141.03 60.916c-9.976-9.942-23.279-15.466-37.32-15.466-29.192 0-52.84 23.567-52.84 52.657 0 9.206 2.586 18.411 7.02 26.144L50.5 151.5l28.083-7.364c7.76 4.05 16.258 6.26 25.127 6.26 29.191 0 52.84-23.567 52.84-52.657-.37-13.625-5.543-26.881-15.52-36.823Zm-11.824 55.971c-1.108 2.945-6.282 5.891-8.868 6.26-2.217.368-5.173.368-8.129-.369-1.848-.736-4.435-1.473-7.391-2.946-13.302-5.523-21.8-18.779-22.54-19.884-.739-.736-5.543-6.996-5.543-13.624 0-6.629 3.326-9.574 4.434-11.047 1.109-1.473 2.587-1.473 3.696-1.473h2.586c.74 0 1.848-.368 2.956 2.21 1.109 2.577 3.695 9.205 4.065 9.573.37.737.37 1.473 0 2.21-.37.736-.74 1.472-1.478 2.209-.74.736-1.478 1.841-1.848 2.21-.739.736-1.478 1.472-.739 2.577.74 1.473 3.326 5.523 7.39 9.206 5.174 4.418 9.238 5.891 10.716 6.628 1.478.736 2.217.368 2.956-.368.74-.737 3.326-3.683 4.065-5.156.739-1.473 1.848-1.104 2.956-.736 1.109.368 7.76 3.682 8.869 4.419 1.478.736 2.217 1.104 2.586 1.473.37 1.104.37 3.682-.739 6.628Z" fill="#121212"/></svg>