<svg width="100" height="100" fill="none" xmlns="http://www.w3.org/2000/svg"><g clip-path="url(#a)" stroke="#fff" stroke-linecap="round" stroke-linejoin="round"><path d="M11.335 82.111a48.63 48.63 0 0 0 13.059 11.004l1.977-3.63A48.528 48.528 0 0 1 13.355 78.4l-2.02 3.711Z" fill="#121212"/><path d="M24.394 93.115a48.337 48.337 0 0 0 11.528 4.812l1.943-3.582a48.211 48.211 0 0 1-11.494-4.86l-1.977 3.63ZM35.922 97.927a49.235 49.235 0 0 0 12.99 1.753h.233l1.91-3.507a49.048 49.048 0 0 1-13.19-1.8l-1.943 3.554ZM49.145 99.68c3.26-.01 6.51-.342 9.703-.992l1.881-3.46c-3.176.63-6.408.946-9.647.946l-1.937 3.507Z" fill="#121212"/><path d="M58.848 98.661a48.393 48.393 0 0 0 8.269-2.494l1.833-3.399a49.266 49.266 0 0 1-8.27 2.406l-1.832 3.487ZM67.138 96.167a47.7 47.7 0 0 0 7.952-4.078l1.77-3.256a48.458 48.458 0 0 1-7.89 3.949l-1.832 3.385ZM75.09 92.102a48.411 48.411 0 0 0 16.282-17.1A48.47 48.47 0 0 1 76.86 88.847l-1.77 3.255ZM4.313 70.747a47.696 47.696 0 0 0 7.022 11.364l2.02-3.711a47.743 47.743 0 0 1-6.981-11.446l-2.06 3.793Z" fill="#121212"/><path d="M1.46 61.993a46.05 46.05 0 0 0 2.854 8.754l2.067-3.793A46.111 46.111 0 0 1 3.57 58.12l-2.11 3.874Z" fill="#121212"/><path d="M.344 51.757a47.276 47.276 0 0 0 1.117 10.236l2.067-3.86a47.294 47.294 0 0 1-1.04-9.897v-1.108a47.206 47.206 0 0 1 6.084-22.13A47.264 47.264 0 0 0 .344 51.757Z" fill="#121212"/><path d="m75.082 92.117.008-.015M2.536 47.123v-.008M.358 51.125l2.178-3.997"/><path d="M85.432 82.12a47.442 47.442 0 0 0 0-67.745c-18.967-18.708-49.717-18.708-68.684 0a47.442 47.442 0 0 0 0 67.745c18.967 18.707 49.717 18.707 68.684 0Z" fill="#121212"/><path d="M85.432 82.12a47.442 47.442 0 0 0 0-67.745c-18.967-18.708-49.717-18.708-68.684 0a47.442 47.442 0 0 0 0 67.745c18.967 18.707 49.717 18.707 68.684 0Z"/><path d="M50.91 89.675c23.147 0 41.91-18.507 41.91-41.337C92.82 25.508 74.057 7 50.91 7 27.764 7 9 25.508 9 48.338c0 22.83 18.764 41.337 41.91 41.337Z" fill="#121212"/><path d="M91.607 49.997a40.95 40.95 0 0 0-7.633-23.78c-4.966-6.962-11.99-12.243-20.113-15.12a42.461 42.461 0 0 0-25.27-.954c-8.322 2.255-15.735 6.99-21.226 13.557a41.707 41.707 0 0 1 12.323-11.064 42.29 42.29 0 0 1 15.72-5.452 42.472 42.472 0 0 1 16.633 1.02 42.14 42.14 0 0 1 14.913 7.332 41.5 41.5 0 0 1 10.839 12.486 40.94 40.94 0 0 1 5.049 15.663 40.798 40.798 0 0 1-1.539 16.367 41.16 41.16 0 0 1-7.883 14.48c5.33-7.099 8.2-15.702 8.187-24.535Z" fill="#fff"/></g><defs><clipPath id="a"><path fill="#fff" d="M0 0h100v100H0z"/></clipPath></defs></svg>